<svg width="48" height="48" viewBox="0 0 48 48" fill="none" xmlns="http://www.w3.org/2000/svg">
<path d="M23.874 27.348L17.304 24.6C16.902 24.436 16.444 24.478 16.08 24.718C15.718 24.958 15.5 25.366 15.5 25.802V35.782C15.5 36.32 15.83 36.802 16.332 36.996C16.484 37.056 16.644 37.084 16.802 37.084C17.162 37.084 17.514 36.934 17.766 36.656L24.336 29.424C24.62 29.112 24.736 28.68 24.642 28.266C24.55 27.854 24.264 27.512 23.874 27.348Z" fill="#2196F3"/>
<path d="M47.52 0.399866C47.1 0.00986645 46.492 -0.106134 45.956 0.101866L0.956008 17.6019C0.378008 17.8259 -0.00199214 18.3839 7.85671e-06 19.0059C0.00200786 19.6279 0.386008 20.1819 0.966008 20.4019L36.466 33.9019C36.638 33.9659 36.82 33.9999 37 33.9999C37.226 33.9999 37.452 33.9499 37.66 33.8479C38.034 33.6639 38.314 33.3359 38.436 32.9399L47.936 1.93987C48.102 1.38987 47.942 0.791866 47.52 0.399866Z" fill="#64B5F6"/>
<path d="M15.5 26L38 10L21.166 28.666L15.5 26Z" fill="#2196F3"/>
<path d="M37 34C36.82 34 36.638 33.966 36.466 33.902L0.965993 20.402C0.385993 20.182 0.00199264 19.626 -7.36084e-06 19.006C-0.00200736 18.386 0.375993 17.826 0.957993 17.602L45.958 0.101954C46.492 -0.104046 47.1 0.00995421 47.522 0.399954C47.942 0.791954 48.104 1.38995 47.934 1.93995L38.434 32.9399C38.312 33.3359 38.032 33.6639 37.66 33.8479C37.452 33.9499 37.226 34 37 34ZM5.67999 18.984L36.036 30.528L44.158 4.01995L5.67999 18.984Z" fill="white"/>
<path d="M17 38C16.818 38 16.634 37.966 16.458 37.898C15.88 37.676 15.5 37.12 15.5 36.5V25C15.5 24.542 15.708 24.112 16.064 23.826L45.564 0.326049C46.214 -0.185952 47.158 -0.0839515 47.674 0.564049C48.19 1.21205 48.082 2.15605 47.436 2.67405L18.5 25.722V32.618L23.462 27.158C24.018 26.542 24.968 26.5 25.58 27.056C26.194 27.612 26.24 28.562 25.682 29.174L18.11 37.508C17.82 37.828 17.414 38 17 38Z" fill="white"/>
<path d="M15.972 39.7079C15.686 39.7079 15.4 39.6279 15.144 39.4579C14.454 38.9999 14.268 38.0699 14.724 37.3779C15.312 36.4939 15.648 35.8459 15.666 35.8139C16.042 35.0779 16.942 34.7839 17.684 35.1679C18.42 35.5439 18.712 36.4479 18.336 37.1839C18.336 37.1839 17.938 37.9639 17.224 39.0399C16.936 39.4719 16.458 39.7079 15.972 39.7079Z" fill="white"/>
<path d="M5.614 45.22C5.486 45.22 5.352 45.202 5.222 45.168C3.336 44.656 1.954 43.52 1.116 41.788C0.756003 41.042 1.07 40.146 1.816 39.784C2.568 39.424 3.46 39.74 3.82 40.484C4.278 41.438 4.954 41.988 6.008 42.276C6.806 42.492 7.28 43.318 7.062 44.116C6.878 44.782 6.276 45.22 5.614 45.22ZM9.772 45.21C9.14 45.21 8.552 44.808 8.344 44.172C8.09 43.382 8.522 42.538 9.308 42.282C10.266 41.974 11.26 41.33 12.26 40.374C12.858 39.802 13.806 39.82 14.382 40.42C14.954 41.02 14.932 41.968 14.336 42.542C13.006 43.814 11.628 44.686 10.236 45.138C10.08 45.188 9.924 45.21 9.772 45.21Z" fill="white"/>
</svg>
