<svg width="24" height="25" viewBox="0 0 24 25" fill="none" xmlns="http://www.w3.org/2000/svg">
<path d="M12.0129 24.0128C11.6723 24.0148 11.3388 23.9153 11.055 23.7271C10.7712 23.5388 10.5499 23.2703 10.4193 22.9557C10.2887 22.6412 10.2547 22.2948 10.3217 21.9609C10.3887 21.627 10.5536 21.3205 10.7954 21.0807L19.8834 12.0099L10.7954 2.93917C10.5145 2.61115 10.3677 2.1892 10.3844 1.75765C10.4011 1.3261 10.58 0.916734 10.8854 0.611355C11.1907 0.305977 11.6001 0.127079 12.0317 0.11041C12.4632 0.0937408 12.8851 0.24053 13.2132 0.521443L23.5014 10.8096C23.8207 11.1309 24 11.5655 24 12.0185C24 12.4715 23.8207 12.9061 23.5014 13.2274L13.2132 23.5156C12.8938 23.8324 12.4627 24.011 12.0129 24.0128Z" fill="white"/>
<path d="M1.72467 24.0128C1.38409 24.0148 1.05064 23.9153 0.766819 23.727C0.483002 23.5388 0.261683 23.2702 0.13108 22.9557C0.000476885 22.6411 -0.0334939 22.2948 0.0334989 21.9609C0.100492 21.6269 0.265413 21.3205 0.507236 21.0807L9.59515 12.0099L0.507236 2.93915C0.184351 2.61627 0.00295619 2.17834 0.00295619 1.72172C0.0029562 1.26509 0.184351 0.827164 0.507236 0.504279C0.83012 0.181395 1.26805 3.40214e-09 1.72467 0C2.1813 -3.40214e-09 2.61923 0.181395 2.94211 0.504279L13.2303 10.7925C13.5497 11.1138 13.7289 11.5483 13.7289 12.0013C13.7289 12.4543 13.5497 12.8889 13.2303 13.2102L2.94211 23.4984C2.7833 23.6604 2.59393 23.7893 2.38495 23.8776C2.17597 23.9659 1.95154 24.0119 1.72467 24.0128Z" fill="white"/>
</svg>
