<svg width="1468" height="1489" viewBox="0 0 1468 1489" fill="none" xmlns="http://www.w3.org/2000/svg">
<path d="M364.32 392.45C370.085 392.45 374.826 393.233 378.682 394.638C393.685 400.108 380.294 417.26 364.325 417.26V417.26C348.356 417.26 334.714 399.938 349.76 394.585C353.624 393.211 358.422 392.447 364.33 392.45H364.32Z" fill="#C2BEB9"/>
<path d="M1465 1340C1465 1395.23 1420.23 1440 1365 1440H125C69.7715 1440 25 1395.23 25 1340V100C25 44.7715 69.7715 0 125 0H1365C1420.23 0 1465 44.7715 1465 100V1340Z" fill="#C2BEB9"/>
<path d="M811.621 972.717L770.945 941.787C750.002 925.861 720.114 929.928 704.188 950.872C688.262 971.815 692.33 1001.7 713.273 1017.63L753.949 1048.56C774.892 1064.49 804.781 1060.42 820.706 1039.47C836.632 1018.53 832.565 988.643 811.621 972.717Z" fill="#FFE8CF"/>
<path d="M1003.56 1092.79L960.572 1120.41C938.436 1134.63 932.021 1164.11 946.243 1186.24C960.465 1208.38 989.938 1214.8 1012.07 1200.57L1055.07 1172.95C1077.2 1158.73 1083.62 1129.26 1069.4 1107.12C1055.17 1084.98 1025.7 1078.57 1003.56 1092.79Z" fill="#FFE8CF"/>
<path d="M517.32 421.73H409.37C392.802 421.73 379.37 435.161 379.37 451.73V614.93C379.37 631.499 392.802 644.93 409.37 644.93H517.32C533.889 644.93 547.32 631.499 547.32 614.93V451.73C547.32 435.161 533.889 421.73 517.32 421.73Z" fill="white"/>
<path d="M375.06 112.5H234.17C217.601 112.5 204.17 125.931 204.17 142.5V333.15C204.17 349.719 217.601 363.15 234.17 363.15H375.06C391.628 363.15 405.06 349.719 405.06 333.15V142.5C405.06 125.931 391.628 112.5 375.06 112.5Z" fill="white"/>
<path d="M687.15 273.42H546.26C529.691 273.42 516.26 286.852 516.26 303.42V494.07C516.26 510.639 529.691 524.07 546.26 524.07H687.15C703.719 524.07 717.15 510.639 717.15 494.07V303.42C717.15 286.852 703.719 273.42 687.15 273.42Z" fill="white"/>
<path d="M1310.4 158.26H1107.72C1085.63 158.26 1067.72 176.169 1067.72 198.26V297.09C1067.72 319.181 1085.63 337.09 1107.72 337.09H1310.4C1332.49 337.09 1350.4 319.181 1350.4 297.09V198.26C1350.4 176.169 1332.49 158.26 1310.4 158.26Z" fill="white"/>
<path d="M515.97 1311.75C515.97 1311.75 525.31 1304.12 525.17 1281.27C525.07 1264.58 518.9 1251.37 515.97 1247.91" stroke="#FF337F" stroke-width="2" stroke-linecap="round" stroke-linejoin="round"/>
<path d="M605.98 1320.55H898.17C911.4 1320.55 922.13 1329.92 922.13 1341.48V1363.46C922.13 1375.02 911.4 1384.39 898.17 1384.39H605.98" stroke="#FF337F" stroke-width="2" stroke-linecap="round" stroke-linejoin="round"/>
<path d="M605.98 1320.55L515.97 1247.92" stroke="#FF337F" stroke-width="2" stroke-linecap="round" stroke-linejoin="round"/>
<path d="M916.41 1327.82L791.92 1247.91" stroke="#FF337F" stroke-width="2" stroke-linecap="round" stroke-linejoin="round"/>
<path d="M605.98 1384.39L515.97 1311.76" stroke="#FF337F" stroke-width="2" stroke-linecap="round" stroke-linejoin="round"/>
<path d="M791.92 1247.92H515.97" stroke="#FF337F" stroke-width="2" stroke-linecap="round" stroke-linejoin="round"/>
<path d="M605.98 1320.55C605.98 1320.55 614 1327.82 614 1352.47C614 1376.72 605.98 1384.39 605.98 1384.39" stroke="#FF337F" stroke-width="2" stroke-linecap="round" stroke-linejoin="round"/>
<path d="M599.33 1256.5C599.33 1256.5 606.83 1250.37 606.72 1232.02C606.64 1218.62 601.68 1208 599.33 1205.22" stroke="#1A2E35" stroke-width="2" stroke-linecap="round" stroke-linejoin="round"/>
<path d="M671.64 1263.57H906.35C916.98 1263.57 925.6 1271.09 925.6 1280.38V1298.04C925.6 1307.32 916.98 1314.85 906.35 1314.85H671.64" stroke="#1A2E35" stroke-width="2" stroke-linecap="round" stroke-linejoin="round"/>
<path d="M671.64 1263.57L599.34 1205.22" stroke="#1A2E35" stroke-width="2" stroke-linecap="round" stroke-linejoin="round"/>
<path d="M921.01 1269.41L821 1205.22" stroke="#1A2E35" stroke-width="2" stroke-linecap="round" stroke-linejoin="round"/>
<path d="M671.64 1314.85L599.34 1256.5" stroke="#1A2E35" stroke-width="2" stroke-linecap="round" stroke-linejoin="round"/>
<path d="M821 1205.23H599.33" stroke="#1A2E35" stroke-width="2" stroke-linecap="round" stroke-linejoin="round"/>
<path d="M671.64 1263.57C671.64 1263.57 678.08 1269.41 678.08 1289.21C678.08 1308.69 671.64 1314.85 671.64 1314.85" stroke="#1A2E35" stroke-width="2" stroke-linecap="round" stroke-linejoin="round"/>
<path d="M1118.99 181.895H1123.04V204.046C1123.04 206.333 1122.5 208.375 1121.42 210.172C1120.35 211.958 1118.84 213.368 1116.89 214.403C1114.95 215.426 1112.66 215.938 1110.03 215.938C1107.41 215.938 1105.12 215.426 1103.17 214.403C1101.22 213.368 1099.71 211.958 1098.63 210.172C1097.56 208.375 1097.03 206.333 1097.03 204.046V181.895H1101.08V203.719C1101.08 205.353 1101.44 206.807 1102.16 208.081C1102.88 209.344 1103.9 210.341 1105.23 211.07C1106.57 211.789 1108.17 212.148 1110.03 212.148C1111.9 212.148 1113.5 211.789 1114.84 211.07C1116.18 210.341 1117.2 209.344 1117.91 208.081C1118.63 206.807 1118.99 205.353 1118.99 203.719V181.895ZM1135.18 181.895V215.35H1131.13V181.895H1135.18ZM1166.56 215.35H1156.24V181.895H1167.02C1170.26 181.895 1173.04 182.565 1175.35 183.905C1177.66 185.233 1179.43 187.145 1180.66 189.638C1181.89 192.121 1182.51 195.094 1182.51 198.557C1182.51 202.042 1181.88 205.043 1180.64 207.558C1179.4 210.063 1177.59 211.99 1175.22 213.341C1172.85 214.68 1169.96 215.35 1166.56 215.35ZM1160.29 211.756H1166.3C1169.07 211.756 1171.36 211.223 1173.18 210.155C1175 209.088 1176.35 207.569 1177.25 205.598C1178.14 203.627 1178.58 201.28 1178.58 198.557C1178.58 195.857 1178.14 193.532 1177.26 191.582C1176.38 189.622 1175.06 188.119 1173.31 187.074C1171.56 186.017 1169.37 185.489 1166.76 185.489H1160.29V211.756ZM1199.3 215.873C1196.88 215.873 1194.79 215.339 1193.04 214.272C1191.3 213.194 1189.95 211.691 1189.01 209.763C1188.07 207.825 1187.6 205.571 1187.6 203.001C1187.6 200.431 1188.07 198.165 1189.01 196.205C1189.95 194.234 1191.27 192.699 1192.96 191.599C1194.66 190.488 1196.64 189.932 1198.91 189.932C1200.21 189.932 1201.5 190.15 1202.78 190.586C1204.05 191.021 1205.21 191.729 1206.26 192.709C1207.3 193.679 1208.14 194.964 1208.76 196.565C1209.38 198.165 1209.69 200.136 1209.69 202.478V204.111H1190.35V200.779H1205.77C1205.77 199.363 1205.48 198.1 1204.92 196.989C1204.36 195.878 1203.57 195.002 1202.53 194.359C1201.51 193.717 1200.3 193.395 1198.91 193.395C1197.37 193.395 1196.04 193.777 1194.92 194.539C1193.81 195.29 1192.95 196.27 1192.36 197.479C1191.76 198.688 1191.46 199.984 1191.46 201.367V203.589C1191.46 205.484 1191.78 207.09 1192.44 208.408C1193.1 209.714 1194.02 210.711 1195.2 211.397C1196.37 212.072 1197.74 212.41 1199.3 212.41C1200.31 212.41 1201.23 212.268 1202.04 211.985C1202.87 211.691 1203.58 211.255 1204.18 210.678C1204.78 210.09 1205.24 209.36 1205.57 208.489L1209.29 209.535C1208.9 210.798 1208.24 211.909 1207.32 212.867C1206.39 213.815 1205.25 214.555 1203.89 215.089C1202.53 215.611 1201 215.873 1199.3 215.873ZM1233.32 195.878L1229.86 196.859C1229.64 196.281 1229.32 195.721 1228.9 195.176C1228.48 194.621 1227.92 194.163 1227.2 193.804C1226.48 193.444 1225.56 193.265 1224.44 193.265C1222.9 193.265 1221.62 193.619 1220.6 194.327C1219.59 195.024 1219.08 195.911 1219.08 196.989C1219.08 197.948 1219.43 198.704 1220.13 199.26C1220.82 199.815 1221.91 200.278 1223.39 200.648L1227.12 201.563C1229.36 202.108 1231.03 202.941 1232.13 204.062C1233.23 205.173 1233.78 206.605 1233.78 208.359C1233.78 209.796 1233.37 211.081 1232.54 212.214C1231.72 213.346 1230.58 214.239 1229.11 214.893C1227.64 215.546 1225.93 215.873 1223.98 215.873C1221.42 215.873 1219.3 215.317 1217.63 214.207C1215.95 213.096 1214.89 211.473 1214.44 209.339L1218.1 208.424C1218.45 209.774 1219.11 210.787 1220.08 211.462C1221.06 212.137 1222.34 212.475 1223.91 212.475C1225.71 212.475 1227.14 212.094 1228.19 211.332C1229.26 210.558 1229.8 209.633 1229.8 208.555C1229.8 207.683 1229.49 206.954 1228.88 206.366C1228.27 205.767 1227.33 205.32 1226.07 205.026L1221.89 204.046C1219.59 203.502 1217.9 202.658 1216.83 201.514C1215.76 200.36 1215.22 198.917 1215.22 197.185C1215.22 195.77 1215.62 194.517 1216.42 193.428C1217.22 192.339 1218.32 191.484 1219.7 190.864C1221.09 190.243 1222.67 189.932 1224.44 189.932C1226.92 189.932 1228.87 190.477 1230.29 191.566C1231.71 192.655 1232.73 194.092 1233.32 195.878ZM1239.58 215.35V190.259H1243.44V215.35H1239.58ZM1241.54 186.077C1240.79 186.077 1240.15 185.821 1239.6 185.31C1239.07 184.798 1238.8 184.182 1238.8 183.464C1238.8 182.745 1239.07 182.13 1239.6 181.618C1240.15 181.106 1240.79 180.85 1241.54 180.85C1242.3 180.85 1242.94 181.106 1243.47 181.618C1244.02 182.13 1244.29 182.745 1244.29 183.464C1244.29 184.182 1244.02 184.798 1243.47 185.31C1242.94 185.821 1242.3 186.077 1241.54 186.077ZM1260.63 225.282C1258.77 225.282 1257.17 225.042 1255.83 224.563C1254.49 224.095 1253.37 223.474 1252.48 222.701C1251.6 221.939 1250.89 221.122 1250.37 220.251L1253.44 218.094C1253.79 218.552 1254.23 219.074 1254.76 219.663C1255.3 220.261 1256.03 220.779 1256.95 221.214C1257.89 221.661 1259.11 221.884 1260.63 221.884C1262.65 221.884 1264.33 221.394 1265.64 220.414C1266.96 219.434 1267.62 217.898 1267.62 215.807V210.711H1267.29C1267.01 211.168 1266.61 211.735 1266.08 212.41C1265.57 213.074 1264.83 213.668 1263.86 214.19C1262.9 214.702 1261.61 214.958 1259.98 214.958C1257.95 214.958 1256.13 214.479 1254.52 213.52C1252.92 212.562 1251.65 211.168 1250.71 209.339C1249.79 207.509 1249.32 205.288 1249.32 202.674C1249.32 200.104 1249.78 197.866 1250.68 195.96C1251.58 194.043 1252.84 192.562 1254.45 191.517C1256.07 190.461 1257.93 189.932 1260.04 189.932C1261.67 189.932 1262.97 190.205 1263.93 190.749C1264.9 191.283 1265.64 191.893 1266.15 192.579C1266.67 193.254 1267.08 193.809 1267.36 194.245H1267.75V190.259H1271.48V216.069C1271.48 218.225 1270.98 219.978 1270 221.329C1269.04 222.69 1267.73 223.686 1266.08 224.318C1264.45 224.961 1262.63 225.282 1260.63 225.282ZM1260.5 211.495C1262.04 211.495 1263.35 211.141 1264.42 210.433C1265.49 209.725 1266.3 208.707 1266.85 207.378C1267.41 206.05 1267.69 204.46 1267.69 202.609C1267.69 200.801 1267.41 199.205 1266.87 197.822C1266.32 196.439 1265.52 195.356 1264.45 194.572C1263.38 193.788 1262.07 193.395 1260.5 193.395C1258.86 193.395 1257.5 193.809 1256.41 194.637C1255.34 195.465 1254.52 196.575 1253.98 197.969C1253.45 199.363 1253.18 200.91 1253.18 202.609C1253.18 204.351 1253.45 205.892 1254 207.231C1254.55 208.56 1255.37 209.605 1256.45 210.368C1257.54 211.119 1258.89 211.495 1260.5 211.495ZM1282.39 200.256V215.35H1278.53V190.259H1282.26V194.18H1282.58C1283.17 192.905 1284.06 191.882 1285.26 191.109C1286.46 190.324 1288.01 189.932 1289.9 189.932C1291.6 189.932 1293.09 190.281 1294.36 190.978C1295.63 191.664 1296.63 192.709 1297.33 194.114C1298.04 195.508 1298.4 197.272 1298.4 199.407V215.35H1294.54V199.668C1294.54 197.697 1294.03 196.162 1293 195.062C1291.98 193.951 1290.58 193.395 1288.79 193.395C1287.56 193.395 1286.46 193.662 1285.49 194.196C1284.53 194.73 1283.78 195.508 1283.22 196.532C1282.66 197.556 1282.39 198.797 1282.39 200.256Z" fill="#FF337F"/>
<path d="M722.884 1335.7H726.406V1354.96C726.406 1356.95 725.938 1358.72 725 1360.29C724.072 1361.84 722.761 1363.07 721.065 1363.97C719.37 1364.86 717.382 1365.3 715.1 1365.3C712.817 1365.3 710.829 1364.86 709.134 1363.97C707.439 1363.07 706.122 1361.84 705.185 1360.29C704.257 1358.72 703.793 1356.95 703.793 1354.96V1335.7H707.315V1354.68C707.315 1356.1 707.628 1357.36 708.253 1358.47C708.878 1359.57 709.768 1360.43 710.923 1361.07C712.088 1361.69 713.48 1362.01 715.1 1362.01C716.719 1362.01 718.111 1361.69 719.276 1361.07C720.44 1360.43 721.331 1359.57 721.946 1358.47C722.571 1357.36 722.884 1356.1 722.884 1354.68V1335.7ZM735.146 1335.7L742.646 1347.8H742.873L750.373 1335.7H754.521L745.373 1350.24L754.521 1364.79H750.373L742.873 1352.92H742.646L735.146 1364.79H730.998L740.373 1350.24L730.998 1335.7H735.146ZM779.333 1364.79H770.355V1335.7H779.73C782.552 1335.7 784.967 1336.28 786.975 1337.45C788.982 1338.6 790.521 1340.26 791.591 1342.43C792.661 1344.59 793.196 1347.18 793.196 1350.19C793.196 1353.22 792.656 1355.83 791.577 1358.01C790.497 1360.19 788.925 1361.87 786.861 1363.04C784.797 1364.21 782.287 1364.79 779.333 1364.79ZM773.878 1361.67H779.105C781.511 1361.67 783.504 1361.2 785.085 1360.27C786.667 1359.34 787.846 1358.02 788.622 1356.31C789.399 1354.6 789.787 1352.56 789.787 1350.19C789.787 1347.84 789.404 1345.82 788.636 1344.12C787.869 1342.42 786.724 1341.11 785.199 1340.2C783.674 1339.28 781.776 1338.82 779.503 1338.82H773.878V1361.67ZM807.798 1365.24C805.696 1365.24 803.883 1364.78 802.358 1363.85C800.843 1362.92 799.673 1361.61 798.85 1359.93C798.035 1358.25 797.628 1356.29 797.628 1354.05C797.628 1351.82 798.035 1349.85 798.85 1348.14C799.673 1346.43 800.819 1345.09 802.287 1344.14C803.764 1343.17 805.488 1342.69 807.458 1342.69C808.594 1342.69 809.716 1342.88 810.824 1343.26C811.932 1343.63 812.94 1344.25 813.85 1345.1C814.759 1345.95 815.483 1347.06 816.023 1348.45C816.563 1349.85 816.833 1351.56 816.833 1353.6V1355.02H800.014V1352.12H813.423C813.423 1350.89 813.177 1349.79 812.685 1348.82C812.202 1347.86 811.511 1347.1 810.611 1346.54C809.721 1345.98 808.67 1345.7 807.458 1345.7C806.122 1345.7 804.967 1346.03 803.992 1346.69C803.026 1347.35 802.282 1348.2 801.761 1349.25C801.241 1350.3 800.98 1351.43 800.98 1352.63V1354.56C800.98 1356.21 801.264 1357.61 801.833 1358.75C802.41 1359.89 803.21 1360.76 804.233 1361.35C805.256 1361.94 806.444 1362.23 807.798 1362.23C808.679 1362.23 809.475 1362.11 810.185 1361.86C810.904 1361.61 811.525 1361.23 812.046 1360.73C812.566 1360.22 812.969 1359.58 813.253 1358.82L816.492 1359.73C816.151 1360.83 815.578 1361.8 814.773 1362.63C813.968 1363.45 812.974 1364.1 811.79 1364.56C810.606 1365.02 809.276 1365.24 807.798 1365.24ZM837.386 1347.86L834.375 1348.71C834.186 1348.21 833.906 1347.72 833.537 1347.25C833.177 1346.76 832.685 1346.37 832.06 1346.05C831.435 1345.74 830.635 1345.59 829.659 1345.59C828.324 1345.59 827.211 1345.89 826.321 1346.51C825.44 1347.11 825 1347.89 825 1348.82C825 1349.66 825.303 1350.32 825.909 1350.8C826.515 1351.28 827.462 1351.68 828.75 1352.01L831.989 1352.8C833.94 1353.27 835.393 1354 836.35 1354.97C837.306 1355.94 837.784 1357.19 837.784 1358.71C837.784 1359.96 837.424 1361.08 836.705 1362.06C835.994 1363.05 835 1363.82 833.722 1364.39C832.443 1364.96 830.957 1365.24 829.261 1365.24C827.036 1365.24 825.194 1364.76 823.736 1363.8C822.278 1362.83 821.354 1361.42 820.966 1359.56L824.148 1358.77C824.451 1359.94 825.024 1360.82 825.867 1361.41C826.719 1362 827.832 1362.29 829.205 1362.29C830.767 1362.29 832.008 1361.96 832.926 1361.3C833.854 1360.62 834.318 1359.82 834.318 1358.88C834.318 1358.12 834.053 1357.49 833.523 1356.98C832.993 1356.46 832.178 1356.07 831.08 1355.81L827.443 1354.96C825.445 1354.49 823.977 1353.75 823.04 1352.76C822.112 1351.76 821.648 1350.5 821.648 1348.99C821.648 1347.76 821.994 1346.67 822.685 1345.73C823.386 1344.78 824.337 1344.04 825.54 1343.5C826.752 1342.96 828.125 1342.69 829.659 1342.69C831.818 1342.69 833.513 1343.16 834.744 1344.11C835.985 1345.06 836.866 1346.31 837.386 1347.86ZM842.83 1364.79V1342.97H846.183V1364.79H842.83ZM844.535 1339.34C843.882 1339.34 843.318 1339.11 842.845 1338.67C842.381 1338.22 842.149 1337.69 842.149 1337.06C842.149 1336.44 842.381 1335.9 842.845 1335.46C843.318 1335.01 843.882 1334.79 844.535 1334.79C845.188 1334.79 845.747 1335.01 846.211 1335.46C846.685 1335.9 846.921 1336.44 846.921 1337.06C846.921 1337.69 846.685 1338.22 846.211 1338.67C845.747 1339.11 845.188 1339.34 844.535 1339.34ZM861.129 1373.43C859.51 1373.43 858.118 1373.22 856.953 1372.8C855.788 1372.39 854.818 1371.85 854.041 1371.18C853.274 1370.52 852.663 1369.81 852.209 1369.05L854.879 1367.18C855.182 1367.57 855.566 1368.03 856.03 1368.54C856.494 1369.06 857.128 1369.51 857.933 1369.89C858.748 1370.28 859.813 1370.47 861.129 1370.47C862.891 1370.47 864.344 1370.05 865.49 1369.19C866.636 1368.34 867.209 1367.01 867.209 1365.19V1360.76H866.925C866.679 1361.15 866.328 1361.65 865.874 1362.23C865.429 1362.81 864.785 1363.33 863.942 1363.78C863.109 1364.23 861.982 1364.45 860.561 1364.45C858.8 1364.45 857.218 1364.03 855.817 1363.2C854.425 1362.37 853.322 1361.15 852.507 1359.56C851.702 1357.97 851.3 1356.04 851.3 1353.77C851.3 1351.53 851.693 1349.59 852.479 1347.93C853.265 1346.26 854.359 1344.97 855.76 1344.07C857.162 1343.15 858.781 1342.69 860.618 1342.69C862.038 1342.69 863.165 1342.92 863.999 1343.4C864.842 1343.86 865.485 1344.39 865.931 1344.99C866.385 1345.58 866.735 1346.06 866.982 1346.44H867.323V1342.97H870.561V1365.42C870.561 1367.29 870.135 1368.81 869.283 1369.99C868.44 1371.17 867.304 1372.04 865.874 1372.59C864.453 1373.15 862.872 1373.43 861.129 1373.43ZM861.016 1361.44C862.36 1361.44 863.497 1361.13 864.425 1360.51C865.353 1359.9 866.058 1359.01 866.541 1357.86C867.024 1356.7 867.266 1355.32 867.266 1353.71C867.266 1352.14 867.029 1350.75 866.556 1349.55C866.082 1348.35 865.381 1347.4 864.453 1346.72C863.525 1346.04 862.379 1345.7 861.016 1345.7C859.595 1345.7 858.412 1346.06 857.465 1346.78C856.527 1347.5 855.822 1348.46 855.348 1349.68C854.884 1350.89 854.652 1352.23 854.652 1353.71C854.652 1355.23 854.889 1356.57 855.362 1357.73C855.845 1358.89 856.556 1359.79 857.493 1360.46C858.44 1361.11 859.614 1361.44 861.016 1361.44ZM880.05 1351.67V1364.79H876.698V1342.97H879.936V1346.38H880.22C880.732 1345.27 881.508 1344.38 882.55 1343.71C883.592 1343.03 884.936 1342.69 886.584 1342.69C888.061 1342.69 889.354 1342.99 890.462 1343.6C891.57 1344.19 892.431 1345.1 893.047 1346.32C893.663 1347.54 893.97 1349.07 893.97 1350.93V1364.79H890.618V1351.15C890.618 1349.44 890.173 1348.1 889.283 1347.15C888.393 1346.18 887.171 1345.7 885.618 1345.7C884.548 1345.7 883.592 1345.93 882.749 1346.4C881.915 1346.86 881.257 1347.54 880.774 1348.43C880.291 1349.32 880.05 1350.4 880.05 1351.67Z" fill="#FF337F"/>
<path d="M695.393 1276.14L702.943 1297.55H703.241L710.792 1276.14H714.02L704.682 1301.57H701.503L692.164 1276.14H695.393ZM717.584 1301.57V1282.5H720.515V1301.57H717.584ZM719.075 1279.32C718.503 1279.32 718.011 1279.12 717.597 1278.73C717.191 1278.34 716.988 1277.88 716.988 1277.33C716.988 1276.78 717.191 1276.32 717.597 1275.93C718.011 1275.54 718.503 1275.34 719.075 1275.34C719.646 1275.34 720.134 1275.54 720.54 1275.93C720.954 1276.32 721.161 1276.78 721.161 1277.33C721.161 1277.88 720.954 1278.34 720.54 1278.73C720.134 1279.12 719.646 1279.32 719.075 1279.32ZM739.394 1286.77L736.761 1287.51C736.596 1287.07 736.352 1286.65 736.029 1286.23C735.714 1285.81 735.284 1285.46 734.737 1285.19C734.191 1284.92 733.491 1284.78 732.639 1284.78C731.471 1284.78 730.498 1285.05 729.72 1285.59C728.95 1286.12 728.565 1286.79 728.565 1287.61C728.565 1288.34 728.83 1288.92 729.36 1289.34C729.89 1289.76 730.718 1290.11 731.844 1290.39L734.675 1291.09C736.381 1291.5 737.651 1292.14 738.488 1292.99C739.324 1293.83 739.742 1294.92 739.742 1296.25C739.742 1297.35 739.427 1298.32 738.798 1299.19C738.177 1300.05 737.308 1300.73 736.19 1301.22C735.073 1301.72 733.773 1301.97 732.291 1301.97C730.345 1301.97 728.735 1301.54 727.46 1300.7C726.185 1299.86 725.378 1298.62 725.039 1297L727.82 1296.3C728.085 1297.33 728.586 1298.1 729.323 1298.61C730.068 1299.13 731.041 1299.38 732.241 1299.38C733.607 1299.38 734.692 1299.09 735.495 1298.51C736.306 1297.93 736.712 1297.22 736.712 1296.4C736.712 1295.74 736.48 1295.19 736.016 1294.74C735.553 1294.28 734.841 1293.94 733.88 1293.72L730.701 1292.98C728.954 1292.56 727.671 1291.92 726.852 1291.05C726.04 1290.17 725.635 1289.08 725.635 1287.76C725.635 1286.68 725.937 1285.73 726.541 1284.9C727.154 1284.08 727.986 1283.43 729.037 1282.95C730.097 1282.48 731.297 1282.25 732.639 1282.25C734.526 1282.25 736.008 1282.66 737.084 1283.49C738.169 1284.32 738.939 1285.41 739.394 1286.77ZM756.174 1293.77V1282.5H759.105V1301.57H756.174V1298.34H755.976C755.529 1299.31 754.833 1300.13 753.889 1300.81C752.946 1301.48 751.753 1301.82 750.313 1301.82C749.121 1301.82 748.061 1301.56 747.134 1301.04C746.207 1300.51 745.478 1299.71 744.948 1298.65C744.418 1297.58 744.153 1296.24 744.153 1294.62V1282.5H747.084V1294.42C747.084 1295.81 747.473 1296.92 748.252 1297.74C749.038 1298.57 750.04 1298.99 751.257 1298.99C751.985 1298.99 752.726 1298.8 753.48 1298.43C754.241 1298.06 754.879 1297.48 755.392 1296.71C755.914 1295.94 756.174 1294.96 756.174 1293.77ZM770.086 1302.02C768.877 1302.02 767.78 1301.79 766.795 1301.33C765.81 1300.87 765.028 1300.2 764.448 1299.33C763.869 1298.46 763.579 1297.4 763.579 1296.16C763.579 1295.06 763.794 1294.18 764.225 1293.5C764.655 1292.81 765.23 1292.27 765.951 1291.88C766.671 1291.49 767.466 1291.2 768.335 1291.01C769.213 1290.82 770.094 1290.66 770.98 1290.54C772.139 1290.39 773.079 1290.28 773.799 1290.21C774.528 1290.12 775.057 1289.99 775.389 1289.8C775.728 1289.61 775.898 1289.28 775.898 1288.8V1288.7C775.898 1287.48 775.563 1286.53 774.892 1285.85C774.23 1285.17 773.224 1284.83 771.874 1284.83C770.475 1284.83 769.378 1285.14 768.583 1285.75C767.789 1286.36 767.23 1287.02 766.907 1287.71L764.125 1286.72C764.622 1285.56 765.284 1284.66 766.112 1284.01C766.948 1283.36 767.859 1282.9 768.844 1282.64C769.838 1282.38 770.815 1282.25 771.775 1282.25C772.388 1282.25 773.091 1282.32 773.886 1282.47C774.689 1282.61 775.463 1282.91 776.208 1283.35C776.962 1283.8 777.587 1284.47 778.083 1285.38C778.58 1286.28 778.829 1287.49 778.829 1289V1301.57H775.898V1298.99H775.749C775.55 1299.4 775.219 1299.84 774.755 1300.32C774.292 1300.79 773.675 1301.19 772.905 1301.52C772.135 1301.85 771.195 1302.02 770.086 1302.02ZM770.533 1299.38C771.692 1299.38 772.669 1299.16 773.464 1298.7C774.267 1298.25 774.871 1297.66 775.277 1296.94C775.691 1296.22 775.898 1295.46 775.898 1294.67V1291.98C775.774 1292.13 775.5 1292.27 775.078 1292.39C774.664 1292.51 774.184 1292.61 773.638 1292.7C773.1 1292.79 772.574 1292.86 772.061 1292.93C771.556 1292.98 771.146 1293.03 770.831 1293.08C770.069 1293.18 769.357 1293.34 768.695 1293.56C768.041 1293.78 767.511 1294.1 767.106 1294.54C766.708 1294.97 766.51 1295.56 766.51 1296.3C766.51 1297.32 766.886 1298.09 767.64 1298.61C768.401 1299.13 769.366 1299.38 770.533 1299.38ZM787.108 1276.14V1301.57H784.178V1276.14H787.108ZM810.557 1301.57H802.709V1276.14H810.905C813.372 1276.14 815.483 1276.65 817.238 1277.66C818.994 1278.67 820.339 1280.13 821.274 1282.02C822.21 1283.91 822.678 1286.17 822.678 1288.8C822.678 1291.45 822.206 1293.73 821.262 1295.65C820.318 1297.55 818.944 1299.02 817.139 1300.04C815.334 1301.06 813.14 1301.57 810.557 1301.57ZM805.789 1298.84H810.359C812.461 1298.84 814.204 1298.43 815.587 1297.62C816.969 1296.81 818 1295.65 818.679 1294.16C819.358 1292.66 819.697 1290.87 819.697 1288.8C819.697 1286.75 819.362 1284.98 818.691 1283.5C818.021 1282.01 817.019 1280.87 815.686 1280.07C814.353 1279.27 812.693 1278.87 810.706 1278.87H805.789V1298.84ZM835.444 1301.97C833.606 1301.97 832.02 1301.56 830.687 1300.75C829.363 1299.93 828.34 1298.79 827.62 1297.32C826.908 1295.85 826.552 1294.14 826.552 1292.18C826.552 1290.23 826.908 1288.51 827.62 1287.02C828.34 1285.52 829.342 1284.35 830.625 1283.51C831.917 1282.67 833.424 1282.25 835.146 1282.25C836.139 1282.25 837.12 1282.41 838.089 1282.74C839.057 1283.07 839.939 1283.61 840.734 1284.36C841.529 1285.09 842.162 1286.07 842.634 1287.29C843.106 1288.51 843.342 1290 843.342 1291.78V1293.03H828.638V1290.49H840.361C840.361 1289.42 840.146 1288.46 839.716 1287.61C839.293 1286.77 838.689 1286.1 837.902 1285.61C837.124 1285.12 836.205 1284.88 835.146 1284.88C833.978 1284.88 832.968 1285.17 832.116 1285.75C831.271 1286.32 830.621 1287.07 830.166 1287.98C829.711 1288.9 829.483 1289.89 829.483 1290.94V1292.63C829.483 1294.07 829.731 1295.29 830.228 1296.29C830.733 1297.29 831.433 1298.04 832.327 1298.56C833.221 1299.08 834.26 1299.33 835.444 1299.33C836.214 1299.33 836.909 1299.23 837.53 1299.01C838.159 1298.79 838.701 1298.46 839.157 1298.02C839.612 1297.57 839.964 1297.02 840.212 1296.35L843.044 1297.15C842.746 1298.11 842.245 1298.95 841.541 1299.68C840.837 1300.4 839.968 1300.97 838.933 1301.37C837.898 1301.77 836.735 1301.97 835.444 1301.97ZM861.311 1286.77L858.678 1287.51C858.513 1287.07 858.269 1286.65 857.946 1286.23C857.631 1285.81 857.201 1285.46 856.654 1285.19C856.108 1284.92 855.408 1284.78 854.555 1284.78C853.388 1284.78 852.415 1285.05 851.637 1285.59C850.867 1286.12 850.482 1286.79 850.482 1287.61C850.482 1288.34 850.747 1288.92 851.277 1289.34C851.807 1289.76 852.635 1290.11 853.761 1290.39L856.592 1291.09C858.298 1291.5 859.568 1292.14 860.404 1292.99C861.241 1293.83 861.659 1294.92 861.659 1296.25C861.659 1297.35 861.344 1298.32 860.715 1299.19C860.094 1300.05 859.225 1300.73 858.107 1301.22C856.989 1301.72 855.69 1301.97 854.208 1301.97C852.262 1301.97 850.652 1301.54 849.377 1300.7C848.102 1299.86 847.295 1298.62 846.955 1297L849.737 1296.3C850.002 1297.33 850.503 1298.1 851.24 1298.61C851.985 1299.13 852.958 1299.38 854.158 1299.38C855.524 1299.38 856.609 1299.09 857.412 1298.51C858.223 1297.93 858.629 1297.22 858.629 1296.4C858.629 1295.74 858.397 1295.19 857.933 1294.74C857.47 1294.28 856.758 1293.94 855.797 1293.72L852.618 1292.98C850.871 1292.56 849.588 1291.92 848.769 1291.05C847.957 1290.17 847.552 1289.08 847.552 1287.76C847.552 1286.68 847.854 1285.73 848.458 1284.9C849.071 1284.08 849.903 1283.43 850.954 1282.95C852.014 1282.48 853.214 1282.25 854.555 1282.25C856.443 1282.25 857.925 1282.66 859.001 1283.49C860.086 1284.32 860.856 1285.41 861.311 1286.77ZM866.07 1301.57V1282.5H869.001V1301.57H866.07ZM867.561 1279.32C866.989 1279.32 866.497 1279.12 866.083 1278.73C865.677 1278.34 865.474 1277.88 865.474 1277.33C865.474 1276.78 865.677 1276.32 866.083 1275.93C866.497 1275.54 866.989 1275.34 867.561 1275.34C868.132 1275.34 868.62 1275.54 869.026 1275.93C869.44 1276.32 869.647 1276.78 869.647 1277.33C869.647 1277.88 869.44 1278.34 869.026 1278.73C868.62 1279.12 868.132 1279.32 867.561 1279.32ZM882.068 1309.12C880.653 1309.12 879.436 1308.94 878.417 1308.57C877.399 1308.22 876.55 1307.75 875.872 1307.16C875.201 1306.58 874.667 1305.96 874.27 1305.3L876.604 1303.66C876.869 1304 877.204 1304.4 877.61 1304.85C878.016 1305.3 878.57 1305.7 879.274 1306.03C879.986 1306.37 880.917 1306.54 882.068 1306.54C883.608 1306.54 884.879 1306.16 885.881 1305.42C886.882 1304.67 887.383 1303.51 887.383 1301.92V1298.04H887.135C886.92 1298.39 886.613 1298.82 886.216 1299.33C885.827 1299.84 885.264 1300.29 884.527 1300.69C883.799 1301.08 882.813 1301.27 881.572 1301.27C880.032 1301.27 878.649 1300.91 877.424 1300.18C876.207 1299.45 875.242 1298.39 874.53 1297C873.827 1295.61 873.475 1293.92 873.475 1291.93C873.475 1289.98 873.818 1288.28 874.505 1286.83C875.193 1285.37 876.149 1284.25 877.374 1283.45C878.599 1282.65 880.015 1282.25 881.621 1282.25C882.863 1282.25 883.848 1282.45 884.577 1282.87C885.314 1283.27 885.877 1283.74 886.266 1284.26C886.663 1284.77 886.969 1285.19 887.185 1285.53H887.483V1282.5H890.314V1302.12C890.314 1303.76 889.941 1305.09 889.196 1306.11C888.46 1307.15 887.466 1307.91 886.216 1308.39C884.974 1308.88 883.592 1309.12 882.068 1309.12ZM881.969 1298.64C883.145 1298.64 884.138 1298.37 884.949 1297.83C885.761 1297.29 886.377 1296.52 886.8 1295.51C887.222 1294.5 887.433 1293.29 887.433 1291.88C887.433 1290.51 887.226 1289.3 886.812 1288.24C886.398 1287.19 885.785 1286.37 884.974 1285.77C884.163 1285.18 883.161 1284.88 881.969 1284.88C880.727 1284.88 879.692 1285.19 878.864 1285.82C878.045 1286.45 877.428 1287.3 877.014 1288.36C876.608 1289.42 876.406 1290.59 876.406 1291.88C876.406 1293.21 876.612 1294.38 877.026 1295.4C877.449 1296.41 878.07 1297.2 878.889 1297.78C879.717 1298.35 880.744 1298.64 881.969 1298.64ZM898.609 1290.1V1301.57H895.679V1282.5H898.51V1285.48H898.758C899.206 1284.51 899.884 1283.73 900.795 1283.14C901.706 1282.54 902.881 1282.25 904.322 1282.25C905.613 1282.25 906.743 1282.51 907.712 1283.04C908.681 1283.56 909.434 1284.36 909.972 1285.43C910.51 1286.49 910.779 1287.83 910.779 1289.45V1301.57H907.849V1289.65C907.849 1288.15 907.46 1286.98 906.681 1286.15C905.903 1285.3 904.835 1284.88 903.477 1284.88C902.542 1284.88 901.706 1285.08 900.969 1285.49C900.24 1285.89 899.665 1286.49 899.243 1287.26C898.821 1288.04 898.609 1288.99 898.609 1290.1Z" fill="#1A2E35"/>
<path d="M515.97 134.29V147.19" stroke="#1A2E35" stroke-width="2" stroke-linecap="round" stroke-linejoin="round"/>
<path d="M515.97 161.74V174.64" stroke="#1A2E35" stroke-width="2" stroke-linecap="round" stroke-linejoin="round"/>
<path d="M536.14 154.47H523.24" stroke="#1A2E35" stroke-width="2" stroke-linecap="round" stroke-linejoin="round"/>
<path d="M508.7 154.47H495.8" stroke="#1A2E35" stroke-width="2" stroke-linecap="round" stroke-linejoin="round"/>
<path d="M892.52 346.23V359.13" stroke="#1A2E35" stroke-width="2" stroke-linecap="round" stroke-linejoin="round"/>
<path d="M892.52 373.67V386.57" stroke="#1A2E35" stroke-width="2" stroke-linecap="round" stroke-linejoin="round"/>
<path d="M912.7 366.4H899.8" stroke="#1A2E35" stroke-width="2" stroke-linecap="round" stroke-linejoin="round"/>
<path d="M885.25 366.4H872.35" stroke="#1A2E35" stroke-width="2" stroke-linecap="round" stroke-linejoin="round"/>
<path d="M216.75 648.53V661.43" stroke="#1A2E35" stroke-width="2" stroke-linecap="round" stroke-linejoin="round"/>
<path d="M216.75 675.98V688.88" stroke="#1A2E35" stroke-width="2" stroke-linecap="round" stroke-linejoin="round"/>
<path d="M236.92 668.71H224.02" stroke="#1A2E35" stroke-width="2" stroke-linecap="round" stroke-linejoin="round"/>
<path d="M209.47 668.71H196.57" stroke="#1A2E35" stroke-width="2" stroke-linecap="round" stroke-linejoin="round"/>
<path d="M533.58 536.56H668.74C686.38 536.56 700.68 523.26 700.68 506.85V317.89C700.68 301.48 686.38 288.18 668.74 288.18H531.73C514.09 288.18 499.79 301.48 499.79 317.89V412.37" stroke="#1A2E35" stroke-width="2" stroke-linecap="round" stroke-linejoin="round"/>
<path d="M700.67 339.66H499.78" stroke="#1A2E35" stroke-width="2" stroke-linecap="round" stroke-linejoin="round"/>
<path d="M651.67 447.87H552.7" stroke="#1A2E35" stroke-width="2" stroke-linecap="round" stroke-linejoin="round"/>
<path d="M651.67 471.63H552.7" stroke="#1A2E35" stroke-width="2" stroke-linecap="round" stroke-linejoin="round"/>
<path d="M651.67 493.78H552.7" stroke="#1A2E35" stroke-width="2" stroke-linecap="round" stroke-linejoin="round"/>
<path d="M677.55 316.22C677.55 313.04 674.97 310.46 671.79 310.46C668.61 310.46 666.03 313.04 666.03 316.22C666.03 319.4 668.61 321.98 671.79 321.98C674.97 321.98 677.55 319.4 677.55 316.22Z" fill="#FF337F"/>
<path d="M643.06 316.22C643.06 313.04 640.48 310.46 637.3 310.46C634.12 310.46 631.54 313.04 631.54 316.22C631.54 319.4 634.12 321.98 637.3 321.98C640.48 321.98 643.06 319.4 643.06 316.22Z" fill="#1A2E35"/>
<path d="M660.31 316.22C660.31 313.04 657.73 310.46 654.55 310.46C651.37 310.46 648.79 313.04 648.79 316.22C648.79 319.4 651.37 321.98 654.55 321.98C657.73 321.98 660.31 319.4 660.31 316.22Z" fill="#FFC046"/>
<path d="M533.58 438.61C533.58 424.12 521.83 412.36 507.33 412.36H394.73C380.23 412.36 368.48 424.11 368.48 438.61V605.53C368.48 620.03 380.23 631.78 394.73 631.78H507.33C521.82 631.78 533.58 620.03 533.58 605.53V438.61Z" stroke="#1A2E35" stroke-width="2" stroke-linecap="round" stroke-linejoin="round"/>
<path d="M533.58 457.84H368.49" stroke="#1A2E35" stroke-width="2" stroke-linecap="round" stroke-linejoin="round"/>
<path d="M513.15 437.14C513.15 434.33 510.87 432.05 508.06 432.05C505.25 432.05 502.97 434.33 502.97 437.14C502.97 439.95 505.25 442.23 508.06 442.23C510.87 442.23 513.15 439.95 513.15 437.14Z" fill="#FF337F"/>
<path d="M482.69 437.14C482.69 434.33 480.41 432.05 477.6 432.05C474.79 432.05 472.51 434.33 472.51 437.14C472.51 439.95 474.79 442.23 477.6 442.23C480.41 442.23 482.69 439.95 482.69 437.14Z" fill="#1A2E35"/>
<path d="M497.92 437.14C497.92 434.33 495.64 432.05 492.83 432.05C490.02 432.05 487.74 434.33 487.74 437.14C487.74 439.95 490.02 442.23 492.83 442.23C495.64 442.23 497.92 439.95 497.92 437.14Z" fill="#FFC046"/>
<path d="M585.49 402.91C585.22 406.67 583.83 409.63 581.33 411.79C578.83 413.95 575.53 415.03 571.43 415.03C566.95 415.03 563.43 413.52 560.86 410.51C558.29 407.49 557.01 403.36 557.01 398.09V395.95C557.01 392.59 557.6 389.63 558.79 387.07C559.97 384.51 561.66 382.55 563.86 381.18C566.06 379.81 568.61 379.13 571.53 379.13C575.56 379.13 578.81 380.21 581.27 382.37C583.73 384.53 585.16 387.56 585.54 391.47H578.34C578.17 389.21 577.54 387.58 576.46 386.56C575.38 385.54 573.74 385.04 571.53 385.04C569.13 385.04 567.33 385.9 566.14 387.62C564.95 389.34 564.34 392.01 564.3 395.62V398.26C564.3 402.04 564.87 404.8 566.01 406.54C567.16 408.28 568.96 409.16 571.42 409.16C573.64 409.16 575.3 408.65 576.4 407.64C577.5 406.62 578.12 405.05 578.28 402.92H585.48L585.49 402.91Z" fill="#FF337F"/>
<path d="M610.79 405.38C610.79 404.02 610.31 402.98 609.35 402.25C608.39 401.52 606.66 400.75 604.17 399.95C601.67 399.14 599.7 398.35 598.24 397.56C594.27 395.42 592.29 392.53 592.29 388.9C592.29 387.01 592.82 385.33 593.89 383.85C594.95 382.37 596.48 381.22 598.47 380.38C600.46 379.55 602.7 379.13 605.18 379.13C607.66 379.13 609.9 379.58 611.85 380.49C613.8 381.39 615.32 382.67 616.4 384.32C617.48 385.97 618.02 387.84 618.02 389.94H610.82C610.82 388.34 610.32 387.1 609.31 386.21C608.3 385.32 606.89 384.88 605.06 384.88C603.3 384.88 601.93 385.25 600.96 386C599.98 386.74 599.5 387.72 599.5 388.94C599.5 390.08 600.07 391.03 601.21 391.79C602.35 392.56 604.04 393.28 606.26 393.95C610.35 395.18 613.34 396.71 615.21 398.53C617.08 400.35 618.02 402.63 618.02 405.34C618.02 408.36 616.87 410.74 614.59 412.45C612.3 414.17 609.22 415.03 605.35 415.03C602.66 415.03 600.22 414.54 598.01 413.55C595.8 412.57 594.12 411.22 592.96 409.51C591.8 407.8 591.22 405.81 591.22 403.56H598.44C598.44 407.42 600.74 409.34 605.35 409.34C607.06 409.34 608.4 408.99 609.36 408.3C610.32 407.6 610.8 406.63 610.8 405.38H610.79Z" fill="#FF337F"/>
<path d="M643.46 405.38C643.46 404.02 642.98 402.98 642.02 402.25C641.06 401.52 639.33 400.75 636.84 399.95C634.34 399.14 632.37 398.35 630.91 397.56C626.94 395.42 624.96 392.53 624.96 388.9C624.96 387.01 625.49 385.33 626.56 383.85C627.62 382.37 629.15 381.22 631.14 380.38C633.13 379.55 635.37 379.13 637.85 379.13C640.33 379.13 642.57 379.58 644.52 380.49C646.47 381.39 647.99 382.67 649.07 384.32C650.15 385.97 650.69 387.84 650.69 389.94H643.49C643.49 388.34 642.99 387.1 641.98 386.21C640.97 385.32 639.56 384.88 637.73 384.88C635.9 384.88 634.6 385.25 633.63 386C632.65 386.74 632.17 387.72 632.17 388.94C632.17 390.08 632.74 391.03 633.88 391.79C635.02 392.56 636.71 393.28 638.93 393.95C643.02 395.18 646.01 396.71 647.88 398.53C649.75 400.35 650.69 402.63 650.69 405.34C650.69 408.36 649.54 410.74 647.26 412.45C644.97 414.17 641.89 415.03 638.02 415.03C635.33 415.03 632.89 414.54 630.68 413.55C628.47 412.57 626.79 411.22 625.63 409.51C624.47 407.8 623.89 405.81 623.89 403.56H631.11C631.11 407.42 633.41 409.34 638.02 409.34C639.73 409.34 641.07 408.99 642.03 408.3C642.99 407.6 643.47 406.63 643.47 405.38H643.46Z" fill="#FF337F"/>
<path d="M409.893 499.67V469.997H419.919C422.238 469.997 424.14 470.393 425.628 471.185C427.115 471.968 428.217 473.045 428.931 474.416C429.646 475.788 430.003 477.348 430.003 479.096C430.003 480.844 429.646 482.395 428.931 483.747C428.217 485.099 427.12 486.162 425.642 486.934C424.165 487.698 422.276 488.079 419.977 488.079H411.864V484.834H419.861C421.446 484.834 422.721 484.602 423.686 484.138C424.662 483.675 425.367 483.018 425.802 482.168C426.246 481.308 426.468 480.284 426.468 479.096C426.468 477.908 426.246 476.87 425.802 475.981C425.357 475.092 424.647 474.407 423.672 473.924C422.696 473.431 421.407 473.185 419.803 473.185H413.486V499.67H409.893ZM423.86 486.34L431.163 499.67H426.99L419.803 486.34H423.86ZM441.381 499.67L433.267 469.997H436.918L443.119 494.164H443.409L449.726 469.997H453.783L460.1 494.164H460.39L466.591 469.997H470.242L462.128 499.67H458.419L451.87 476.025H451.639L445.09 499.67H441.381ZM483.876 499.67H474.719V469.997H484.282C487.16 469.997 489.623 470.591 491.671 471.779C493.718 472.958 495.288 474.653 496.38 476.865C497.471 479.067 498.017 481.704 498.017 484.776C498.017 487.867 497.466 490.528 496.365 492.759C495.264 494.98 493.66 496.69 491.555 497.888C489.449 499.076 486.889 499.67 483.876 499.67ZM478.312 496.482H483.644C486.097 496.482 488.131 496.009 489.744 495.063C491.357 494.116 492.559 492.769 493.351 491.02C494.143 489.272 494.539 487.19 494.539 484.776C494.539 482.38 494.148 480.318 493.366 478.589C492.583 476.85 491.415 475.517 489.86 474.59C488.305 473.653 486.368 473.185 484.05 473.185H478.312V496.482Z" fill="#FF337F"/>
<path d="M392.01 158.19C392.01 141.78 377.71 128.48 360.07 128.48H223.06C205.42 128.48 191.12 141.78 191.12 158.19V347.15C191.12 363.56 205.42 376.86 223.06 376.86H360.07C377.71 376.86 392.01 363.56 392.01 347.15V158.19Z" stroke="#1A2E35" stroke-width="2" stroke-linecap="round" stroke-linejoin="round"/>
<path d="M392.01 179.96H191.12" stroke="#1A2E35" stroke-width="2" stroke-linecap="round" stroke-linejoin="round"/>
<path d="M340.48 288.17H241.51" stroke="#1A2E35" stroke-width="2" stroke-linecap="round" stroke-linejoin="round"/>
<path d="M340.48 311.94H241.51" stroke="#1A2E35" stroke-width="2" stroke-linecap="round" stroke-linejoin="round"/>
<path d="M340.48 334.09H241.51" stroke="#1A2E35" stroke-width="2" stroke-linecap="round" stroke-linejoin="round"/>
<path d="M368.89 156.52C368.89 153.34 366.31 150.76 363.13 150.76C359.95 150.76 357.37 153.34 357.37 156.52C357.37 159.7 359.95 162.28 363.13 162.28C366.31 162.28 368.89 159.7 368.89 156.52Z" fill="#FF337F"/>
<path d="M334.39 156.52C334.39 153.34 331.81 150.76 328.63 150.76C325.45 150.76 322.87 153.34 322.87 156.52C322.87 159.7 325.45 162.28 328.63 162.28C331.81 162.28 334.39 159.7 334.39 156.52Z" fill="#1A2E35"/>
<path d="M351.64 156.52C351.64 153.34 349.06 150.76 345.88 150.76C342.7 150.76 340.12 153.34 340.12 156.52C340.12 159.7 342.7 162.28 345.88 162.28C349.06 162.28 351.64 159.7 351.64 156.52Z" fill="#FFC046"/>
<path d="M253.35 249.93H247.12V236.98H234.98V249.93H228.75V219.72H234.98V231.96H247.12V219.72H253.35V249.93Z" fill="#FF337F"/>
<path d="M283.05 224.77H273.8V249.94H267.57V224.77H258.44V219.73H283.05V224.77Z" fill="#FF337F"/>
<path d="M296.85 219.72L304.61 241.63L312.33 219.72H320.5V249.93H314.26V241.67L314.88 227.41L306.73 249.92H302.46L294.33 227.43L294.95 241.66V249.92H288.72V219.71H296.85V219.72Z" fill="#FF337F"/>
<path d="M334.29 244.93H347.51V249.93H328.07V219.72H334.3V244.93H334.29Z" fill="#FF337F"/>
<path d="M790.59 258.61C790.59 239.25 806.29 223.55 825.65 223.55C845.01 223.55 860.71 239.25 860.71 258.61C860.71 277.97 845.01 293.67 825.65 293.67C806.29 293.67 790.59 277.97 790.59 258.61Z" stroke="#FFC046" stroke-width="2" stroke-linecap="round" stroke-linejoin="round"/>
<path d="M775.04 149.64C726.35 167.23 691.98 209.35 691.98 258.61H959.33C959.33 209.35 925 167.23 876.27 149.64H775.04Z" fill="#FF337F"/>
<path d="M825.63 111.31C797.82 111.31 775.3 134.93 775.3 164.07H876.01C876.01 134.93 853.45 111.31 825.63 111.31Z" stroke="#FF337F" stroke-width="2" stroke-linecap="round" stroke-linejoin="round"/>
<path d="M825.66 55.61V111.3" stroke="#FF337F" stroke-width="2" stroke-linecap="round" stroke-linejoin="round"/>
<path d="M686.46 238.93H964.84" stroke="#FFC046" stroke-width="2" stroke-linecap="round" stroke-linejoin="round"/>
<path d="M190.46 977.09H120" stroke="#1A2E35" stroke-width="2" stroke-linecap="round" stroke-linejoin="round"/>
<path d="M1420 977.09H829.15" stroke="#1A2E35" stroke-width="2" stroke-linecap="round" stroke-linejoin="round"/>
<path d="M1217.92 328.13H1111.1C1081.77 328.13 1058 303.02 1058 272.05V203.08C1058 172.11 1081.77 147 1111.1 147H1281.83C1311.15 147 1334.93 172.11 1334.93 203.08V272.05C1334.93 303.02 1308.98 328.13 1279.66 328.13" stroke="#1A2E35" stroke-width="2" stroke-linecap="round" stroke-linejoin="round"/>
<path d="M1218.18 328.13C1218.18 328.13 1221.23 341.41 1210.29 356.16C1208.6 358.44 1206.59 360.77 1204.19 363.13C1186.27 380.78 1159.53 386.66 1159.53 386.66C1159.53 386.66 1217.1 386.1 1237.08 378.37C1279.98 361.77 1279.21 328.13 1279.21 328.13" stroke="#1A2E35" stroke-width="2" stroke-linecap="round" stroke-linejoin="round"/>
<path d="M1237.51 237.56H1093.7" stroke="#1A2E35" stroke-width="2" stroke-linecap="round" stroke-linejoin="round"/>
<path d="M1237.51 261.47H1093.7" stroke="#1A2E35" stroke-width="2" stroke-linecap="round" stroke-linejoin="round"/>
<path d="M1237.51 285.38H1093.7" stroke="#1A2E35" stroke-width="2" stroke-linecap="round" stroke-linejoin="round"/>
<path d="M1237.51 237.56H1093.7" stroke="#FF337F" stroke-width="2" stroke-linecap="round" stroke-linejoin="round"/>
<path d="M1237.51 261.47H1093.7" stroke="#FFC046" stroke-width="2" stroke-linecap="round" stroke-linejoin="round"/>
<path d="M1237.51 285.38H1093.7" stroke="#FFC046" stroke-width="2" stroke-linecap="round" stroke-linejoin="round"/>
<path d="M1299.72 237.56H1273.35" stroke="#FFC046" stroke-width="2" stroke-linecap="round" stroke-linejoin="round"/>
<path d="M1299.72 261.47H1273.35" stroke="#FFC046" stroke-width="2" stroke-linecap="round" stroke-linejoin="round"/>
<path d="M1299.72 285.38H1273.35" stroke="#FFC046" stroke-width="2" stroke-linecap="round" stroke-linejoin="round"/>
<path d="M1299.72 237.56H1273.35" stroke="#FF337F" stroke-width="2" stroke-linecap="round" stroke-linejoin="round"/>
<path d="M1299.72 261.47H1273.35" stroke="#FF337F" stroke-width="2" stroke-linecap="round" stroke-linejoin="round"/>
<path d="M1299.72 285.38H1273.35" stroke="#FF337F" stroke-width="2" stroke-linecap="round" stroke-linejoin="round"/>
<path d="M166.9 496.47L127.7 526.74L166.9 561.88" stroke="#FF337F" stroke-width="2" stroke-linecap="round" stroke-linejoin="round"/>
<path d="M252.04 496.47L291.24 526.74L252.04 561.88" stroke="#FF337F" stroke-width="2" stroke-linecap="round" stroke-linejoin="round"/>
<path d="M230.36 496.47L189.05 561.88" stroke="#FF337F" stroke-width="2" stroke-linecap="round" stroke-linejoin="round"/>
<path d="M657.64 1153.07C657.64 1131.93 560.34 1114.78 440.32 1114.78C320.3 1114.78 223 1131.92 223 1153.07C223 1174.21 320.3 1191.36 440.32 1191.36C560.34 1191.36 657.64 1174.22 657.64 1153.07Z" fill="#FF337F"/>
<path d="M1302.89 1223.25C1313.35 1227.92 1316.2 1232.73 1316.2 1232.73C1316.28 1233.44 1327.81 1339 1264.09 1340.1C1239.26 1340.53 1225.43 1327.1 1217.7 1309.72C1210.65 1310.04 1203.36 1309.94 1196.35 1309.04C1176.91 1306.57 1163.93 1298.97 1162.74 1283.78C1161.53 1268.27 1173 1258.51 1191.39 1253.1C1196.96 1251.46 1202.87 1250.38 1208.76 1249.64C1209.19 1239.57 1210.19 1232.72 1210.19 1232.72C1210.21 1232.71 1213.92 1227.89 1222.53 1224.1C1234.13 1218.99 1249.04 1216.25 1261.32 1216.25C1275.71 1216.25 1291.02 1217.93 1302.9 1223.24L1302.89 1223.25ZM1226.32 1227.61C1218.44 1230.8 1216.32 1233.72 1214.39 1235.66C1220.86 1240.2 1235.58 1248.06 1261.46 1247.99C1288.37 1247.93 1304.62 1239.98 1311.76 1235.51C1310.1 1233.72 1307.52 1230.83 1300.35 1227.77C1288.95 1222.91 1275 1221.07 1261.3 1221.07C1249.76 1221.07 1239.32 1222.34 1226.31 1227.61H1226.32ZM1194.84 1265.07C1181.43 1269.02 1174.52 1274.9 1175.14 1282.82C1175.72 1290.28 1183.66 1294.92 1197.92 1296.73C1203 1297.38 1208.36 1297.23 1213.64 1297.11C1210.43 1285.26 1208.94 1273.19 1208.75 1262.3C1204 1262.96 1199.21 1263.79 1194.84 1265.08V1265.07Z" fill="#FFC046"/>
<path d="M1228.8 1243.09C1228.8 1243.09 1241.92 1233.61 1262.63 1233.56C1283.74 1233.51 1296.96 1242.45 1296.96 1242.45C1296.96 1242.45 1279.96 1249.2 1262.63 1248.81C1241.6 1248.34 1228.8 1243.09 1228.8 1243.09Z" fill="#1A2E35"/>
<path d="M1253.26 1088.74C1253.26 1088.74 1260.14 1099 1256.61 1116.03C1253.08 1133.05 1247.26 1138.34 1245.41 1156.03C1243.55 1173.72 1251.09 1186.87 1251.09 1186.87" stroke="#1A2E35" stroke-width="2" stroke-linecap="round" stroke-linejoin="round"/>
<path d="M1259.64 1148.35C1259.64 1148.35 1257.39 1162.7 1259.17 1171.37C1262.59 1188.08 1267.76 1196.23 1267.76 1196.23" stroke="#1A2E35" stroke-width="2" stroke-linecap="round" stroke-linejoin="round"/>
<path d="M993.8 1037.76H670.07L625.29 1088.74H949.02L993.8 1037.76Z" stroke="#FFC046" stroke-width="2" stroke-linecap="round" stroke-linejoin="round"/>
<path d="M625.28 1114.23H949.01L993.79 1063.25" stroke="#FFC046" stroke-width="2" stroke-linecap="round" stroke-linejoin="round"/>
<path d="M993.8 1037.76V1063.25" stroke="#FFC046" stroke-width="2" stroke-linecap="round" stroke-linejoin="round"/>
<path d="M949.26 1088.74V1114.23" stroke="#FFC046" stroke-width="2" stroke-linecap="round" stroke-linejoin="round"/>
<path d="M625.28 1088.74V1114.23" stroke="#FFC046" stroke-width="2" stroke-linecap="round" stroke-linejoin="round"/>
<path d="M958.07 1052.06H934.58L925.01 1062.45H948.5L958.07 1052.06Z" fill="#FFC046"/>
<path d="M914.67 1052.06H891.18L881.62 1062.45H905.11L914.68 1052.06H914.67Z" fill="#FFC046"/>
<path d="M754.03 1052.06H730.54L720.97 1062.45H744.46L754.03 1052.06Z" fill="#FFC046"/>
<path d="M710.63 1052.06H687.14L677.58 1062.45H701.07L710.64 1052.06H710.63Z" fill="#FFC046"/>
<path d="M865.21 1052.06H779.95L770.38 1062.45H855.64L865.21 1052.06Z" fill="#FFC046"/>
<path d="M1333.26 977.09L1348.17 680.23C1347.85 656.26 1328.19 646.39 1306.06 647.75L1157.34 646.42" stroke="#1A2E35" stroke-width="2" stroke-linecap="round" stroke-linejoin="round"/>
<path d="M1311.01 977.05L1327.2 696.38C1326.84 676.02 1318.29 670.89 1307.44 668.7" stroke="#1A2E35" stroke-width="2" stroke-linecap="round" stroke-linejoin="round"/>
<path d="M1080.75 914.88C1129.09 944.27 1128.97 977.08 1128.97 977.08H863.48C863.48 977.08 876.19 938.71 899.48 924.07C947.75 893.72 1046.13 893.83 1080.75 914.88Z" fill="#1A2E35"/>
<path d="M845.89 861.22C845.89 861.22 880.59 947.42 980.62 957.86C1064.52 966.62 1096.31 942.34 1096.31 942.34C1096.31 942.34 1019.4 1016.73 1022.97 1064.11C1025.96 1103.74 1065.82 1142.01 1122.96 1136.37C1180.1 1130.73 1304.19 1051.77 1298.06 900.73C1292.34 759.89 1216.93 699.28 1181.49 671.85C1117.13 622.03 1029.56 601.38 943.24 607.98C856.56 614.6 772.21 655.9 721.03 704.88C668.78 754.89 625.28 835.93 632.13 900.07C638.49 959.61 666.69 974.18 666.69 974.18H789.41C789.41 974.18 792.6 940.8 807.07 909.58C821.53 878.36 845.9 861.22 845.9 861.22H845.89Z" fill="#FF337F"/>
<path opacity="0.3" d="M973.83 606.87C969.63 609.92 966.73 614.6 966.73 620.17C966.73 629.43 974.32 636.92 983.58 636.93C992.84 636.93 1000.34 629.43 1000.34 620.17C1000.34 615.06 997.92 610.67 994.33 607.6C988.1 607.29 981.92 606.8 975.66 606.78C975.05 606.78 974.44 606.87 973.84 606.87H973.83ZM872.38 621.07C872.88 629.89 880.11 636.91 889.05 636.92C898.31 636.92 905.81 629.42 905.81 620.16C905.81 617.77 905.34 615.47 904.44 613.42C893.61 615.51 882.93 618.05 872.39 621.07H872.38ZM1061.25 620.17C1061.25 629.43 1068.75 636.92 1078.01 636.93C1085.28 636.93 1091.32 632.28 1093.67 625.82C1083.28 622.33 1072.68 619.41 1061.89 616.89C1061.67 617.98 1061.25 619.01 1061.25 620.17ZM1106.96 682.63C1106.96 691.89 1114.46 699.39 1123.72 699.39C1132.98 699.39 1140.57 691.89 1140.57 682.63C1140.57 673.37 1132.98 665.87 1123.72 665.87C1114.46 665.87 1106.97 673.37 1106.96 682.63ZM1012.44 682.63C1012.44 691.89 1020.03 699.39 1029.29 699.39C1038.55 699.39 1046.05 691.89 1046.05 682.63C1046.05 673.37 1038.55 665.87 1029.29 665.87C1020.03 665.87 1012.44 673.37 1012.44 682.63ZM918.01 682.63C918.01 691.89 925.51 699.39 934.77 699.39C944.03 699.39 951.53 691.89 951.53 682.63C951.53 673.37 944.03 665.87 934.77 665.87C925.51 665.87 918.01 673.37 918.01 682.63ZM823.48 682.63C823.48 691.89 830.98 699.39 840.24 699.39C849.5 699.39 857 691.89 857 682.63C857 673.37 849.5 665.87 840.24 665.87C830.98 665.87 823.48 673.37 823.48 682.63ZM733.51 694.02C736.57 697.3 740.87 699.39 745.71 699.39C754.97 699.39 762.47 691.89 762.47 682.63C762.47 679.35 761.27 676.47 759.65 673.89C750.29 680.33 741.66 687.08 733.51 694.01V694.02ZM1212.69 698.3C1209.46 695.21 1206.39 692.72 1203.31 690.01C1205.23 693.89 1208.56 696.84 1212.69 698.3ZM1155.78 745.2C1155.78 754.46 1163.28 761.96 1172.54 761.96C1181.8 761.96 1189.3 754.46 1189.3 745.2C1189.3 735.94 1181.81 728.35 1172.54 728.35C1163.28 728.35 1155.78 735.94 1155.78 745.2ZM1061.25 745.2C1061.25 754.46 1068.75 761.96 1078.01 761.96C1087.27 761.96 1094.86 754.46 1094.86 745.2C1094.86 735.94 1087.27 728.35 1078.01 728.35C1068.75 728.35 1061.25 735.94 1061.25 745.2ZM966.73 745.2C966.73 754.46 974.32 761.96 983.58 761.96C992.84 761.96 1000.34 754.46 1000.34 745.2C1000.34 735.94 992.84 728.35 983.58 728.35C974.32 728.35 966.73 735.94 966.73 745.2ZM872.2 745.2C872.2 754.46 879.79 761.96 889.05 761.96C898.31 761.96 905.81 754.46 905.81 745.2C905.81 735.94 898.31 728.35 889.05 728.35C879.79 728.35 872.2 735.94 872.2 745.2ZM777.77 745.2C777.77 754.46 785.27 761.96 794.53 761.96C803.79 761.96 811.29 754.46 811.29 745.2C811.29 735.94 803.79 728.35 794.53 728.35C785.27 728.35 777.77 735.94 777.77 745.2ZM699.09 728.53C693.81 734.8 688.67 741.25 683.79 748.02C685.17 755.89 691.73 761.96 700 761.96C709.26 761.96 716.76 754.46 716.76 745.2C716.76 735.94 709.26 728.35 700 728.35C699.68 728.35 699.41 728.52 699.09 728.53ZM1250.3 745.2C1250.3 752.18 1254.53 758.16 1260.59 760.68C1257.29 754.82 1254.16 748.63 1250.66 743.38C1250.59 744 1250.3 744.56 1250.3 745.2ZM1201.49 807.67C1201.49 816.93 1208.99 824.43 1218.25 824.43C1227.51 824.43 1235.1 816.93 1235.1 807.67C1235.1 798.41 1227.51 790.91 1218.25 790.91C1208.99 790.91 1201.49 798.41 1201.49 807.67ZM1106.96 807.67C1106.96 816.93 1114.46 824.43 1123.72 824.43C1132.98 824.43 1140.57 816.93 1140.57 807.67C1140.57 798.41 1132.98 790.91 1123.72 790.91C1114.46 790.91 1106.97 798.41 1106.96 807.67ZM1012.44 807.67C1012.44 816.93 1020.03 824.43 1029.29 824.43C1038.55 824.43 1046.05 816.93 1046.05 807.67C1046.05 798.41 1038.55 790.91 1029.29 790.91C1020.03 790.91 1012.44 798.41 1012.44 807.67ZM918.01 807.67C918.01 816.93 925.51 824.43 934.77 824.43C944.03 824.43 951.53 816.93 951.53 807.67C951.53 798.41 944.03 790.91 934.77 790.91C925.51 790.91 918.01 798.41 918.01 807.67ZM823.48 807.67C823.48 816.93 830.98 824.43 840.24 824.43C849.5 824.43 857 816.93 857 807.67C857 798.41 849.5 790.91 840.24 790.91C830.98 790.91 823.48 798.41 823.48 807.67ZM728.95 807.67C728.95 816.93 736.45 824.43 745.71 824.43C754.97 824.43 762.47 816.93 762.47 807.67C762.47 798.41 754.97 790.91 745.71 790.91C736.45 790.91 728.95 798.41 728.95 807.67ZM643.81 822.6C646.05 823.71 648.52 824.42 651.19 824.42C660.45 824.42 667.95 816.92 667.95 807.66C667.95 800.52 663.49 794.51 657.21 792.09C652.15 802.14 647.53 812.34 643.82 822.59L643.81 822.6ZM1250.3 870.14C1250.3 879.4 1257.8 886.9 1267.06 886.9C1276.32 886.9 1283.82 879.4 1283.82 870.14C1283.82 860.88 1276.32 853.38 1267.06 853.38C1257.8 853.38 1250.3 860.88 1250.3 870.14ZM1155.78 870.14C1155.78 879.4 1163.28 886.9 1172.54 886.9C1181.8 886.9 1189.3 879.4 1189.3 870.14C1189.3 860.88 1181.81 853.38 1172.54 853.38C1163.28 853.38 1155.78 860.88 1155.78 870.14ZM1061.25 870.14C1061.25 879.4 1068.75 886.9 1078.01 886.9C1087.27 886.9 1094.86 879.4 1094.86 870.14C1094.86 860.88 1087.27 853.38 1078.01 853.38C1068.75 853.38 1061.25 860.88 1061.25 870.14ZM966.73 870.14C966.73 879.4 974.32 886.9 983.58 886.9C992.84 886.9 1000.34 879.4 1000.34 870.14C1000.34 860.88 992.84 853.38 983.58 853.38C974.32 853.38 966.73 860.88 966.73 870.14ZM872.2 870.14C872.2 879.4 879.79 886.9 889.05 886.9C898.31 886.9 905.81 879.4 905.81 870.14C905.81 860.88 898.31 853.38 889.05 853.38C879.79 853.38 872.2 860.88 872.2 870.14ZM777.77 870.14C777.77 879.4 785.27 886.9 794.53 886.9C803.79 886.9 811.29 879.4 811.29 870.14C811.29 860.88 803.79 853.38 794.53 853.38C785.27 853.38 777.77 860.88 777.77 870.14ZM683.24 870.14C683.24 879.4 690.74 886.9 700 886.9C709.26 886.9 716.76 879.4 716.76 870.14C716.76 860.88 709.26 853.38 700 853.38C690.74 853.38 683.24 860.88 683.24 870.14ZM1201.49 932.61C1201.49 941.87 1208.99 949.46 1218.25 949.46C1227.51 949.46 1235.1 941.87 1235.1 932.61C1235.1 923.35 1227.51 915.85 1218.25 915.85C1208.99 915.85 1201.49 923.35 1201.49 932.61ZM1106.96 932.61C1106.96 941.87 1114.46 949.46 1123.72 949.46C1132.98 949.46 1140.57 941.87 1140.57 932.61C1140.57 923.35 1132.98 915.85 1123.72 915.85C1114.46 915.85 1106.97 923.35 1106.96 932.61ZM1012.44 932.61C1012.44 941.87 1020.03 949.46 1029.29 949.46C1038.55 949.46 1046.05 941.87 1046.05 932.61C1046.05 923.35 1038.55 915.85 1029.29 915.85C1020.03 915.85 1012.44 923.35 1012.44 932.61ZM918.01 932.61C918.01 935 918.48 937.29 919.38 939.35C925.69 942.72 932.6 945.7 939.87 948.36C946.6 946.16 951.53 940.07 951.53 932.61C951.53 923.35 944.03 915.85 934.77 915.85C925.51 915.85 918.01 923.35 918.01 932.61ZM728.95 932.61C728.95 941.87 736.45 949.46 745.71 949.46C754.97 949.46 762.47 941.87 762.47 932.61C762.47 923.35 754.97 915.85 745.71 915.85C736.45 915.85 728.95 923.35 728.95 932.61ZM636.71 924.69C639.14 934.02 642.02 941.89 645.18 948.18C647.05 948.91 649.06 949.46 651.19 949.46C660.45 949.46 667.95 941.87 667.95 932.61C667.95 923.35 660.45 915.85 651.19 915.85C644.85 915.85 639.56 919.5 636.71 924.69ZM1296.02 932.61C1296.02 933.96 1296.45 935.17 1296.75 936.44C1297.12 932.75 1297.54 929.12 1297.75 925.33C1296.68 927.54 1296.02 929.99 1296.02 932.62V932.61ZM1250.3 995.17C1250.3 1004.43 1257.8 1011.93 1267.06 1011.93C1271.29 1011.93 1275.04 1010.23 1277.99 1007.65C1279.98 1003.21 1281.81 998.66 1283.54 993.99C1282.9 985.31 1275.9 978.42 1267.06 978.42C1257.8 978.42 1250.3 985.92 1250.3 995.18V995.17ZM1155.78 995.17C1155.78 1004.43 1163.28 1011.93 1172.54 1011.93C1181.8 1011.93 1189.3 1004.43 1189.3 995.17C1189.3 985.91 1181.81 978.41 1172.54 978.41C1163.28 978.41 1155.78 985.91 1155.78 995.17ZM1061.25 995.17C1061.25 1004.43 1068.75 1011.93 1078.01 1011.93C1087.27 1011.93 1094.86 1004.43 1094.86 995.17C1094.86 985.91 1087.27 978.41 1078.01 978.41C1068.75 978.41 1061.25 985.91 1061.25 995.17ZM1201.49 1057.64C1201.49 1066.9 1208.99 1074.4 1218.25 1074.4C1227.51 1074.4 1235.1 1066.9 1235.1 1057.64C1235.1 1048.38 1227.51 1040.89 1218.25 1040.88C1208.99 1040.88 1201.49 1048.38 1201.49 1057.64ZM1106.96 1057.64C1106.96 1066.9 1114.46 1074.4 1123.72 1074.4C1132.98 1074.4 1140.57 1066.9 1140.57 1057.64C1140.57 1048.38 1132.98 1040.89 1123.72 1040.88C1114.46 1040.88 1106.97 1048.38 1106.96 1057.64ZM1026.56 1041.43C1024.05 1049.34 1022.47 1057.06 1023.01 1064.1C1023.25 1067.25 1024.14 1070.37 1024.83 1073.48C1026.28 1073.89 1027.71 1074.39 1029.29 1074.39C1038.55 1074.39 1046.05 1066.89 1046.05 1057.63C1046.05 1048.37 1038.55 1040.88 1029.29 1040.87C1028.33 1040.87 1027.48 1041.26 1026.56 1041.42V1041.43ZM1155.78 1120.11C1155.78 1122.36 1156.25 1124.52 1157.06 1126.49C1166.52 1122.61 1176.24 1117.44 1186.38 1111.19C1183.4 1106.58 1178.44 1103.36 1172.54 1103.36C1163.28 1103.36 1155.78 1110.86 1155.78 1120.12V1120.11ZM1061.25 1120.11C1061.25 1121.17 1061.61 1122.11 1061.79 1123.11C1069.43 1127.74 1077.95 1131.43 1087.38 1133.77C1091.8 1130.72 1094.85 1125.85 1094.85 1120.11C1094.85 1110.85 1087.26 1103.35 1078 1103.35C1068.74 1103.35 1061.24 1110.85 1061.24 1120.11H1061.25Z" fill="white"/>
<path d="M888.76 631.21L907.94 678.39L942.51 631.25L978.18 681.14L1007.78 624.86" stroke="white" stroke-width="2" stroke-linecap="round" stroke-linejoin="round"/>
<path d="M951.91 689.21C951.91 684.75 948.3 681.14 943.84 681.14C939.38 681.14 935.77 684.75 935.77 689.21C935.77 693.67 939.38 697.28 943.84 697.28C948.3 697.28 951.91 693.67 951.91 689.21Z" fill="white"/>
<path d="M951.91 724.52C951.91 720.06 948.3 716.45 943.84 716.45C939.38 716.45 935.77 720.06 935.77 724.52C935.77 728.98 939.38 732.59 943.84 732.59C948.3 732.59 951.91 728.98 951.91 724.52Z" fill="white"/>
<path d="M1102.93 741.11C1102.93 741.11 1120.73 767.84 1123.91 813.94C1128.96 887.33 1099.51 930.73 1099.51 930.73" stroke="white" stroke-width="2" stroke-linecap="round" stroke-linejoin="round"/>
<path d="M836.27 761.59C836.27 761.59 832.02 783.58 834.84 805.8C837.66 828.02 844.27 849.97 844.27 849.97" stroke="white" stroke-width="2" stroke-linecap="round" stroke-linejoin="round"/>
<path d="M1091.56 1123.63C1091.56 1123.63 1080.89 1147.37 1065.79 1158.35C1050.68 1169.32 1032.65 1172.26 1018.51 1179.44C1004.37 1186.62 990.86 1202.88 981.44 1199.81C972.02 1196.73 975.79 1186.54 986.83 1171.78C995.67 1159.96 1007.02 1153.26 1007.02 1153.26C1007.02 1153.26 997.19 1158.8 986.55 1171.23C975.91 1183.66 972.48 1203.32 961.26 1201.57C950.03 1199.82 953.76 1164.67 974.18 1146.85C993.39 1130.09 991.53 1132.61 991.53 1132.61C991.53 1132.61 986.64 1135.02 974.17 1146.83C962.73 1157.66 950.09 1182.87 941.5 1180.62C932.91 1178.36 940.66 1142.63 963.1 1121.71C997.82 1089.33 1042.81 1076.58 1042.81 1076.58" stroke="#1A2E35" stroke-width="2" stroke-linecap="round" stroke-linejoin="round"/>
<path d="M746.66 947.17C746.66 947.17 805.64 954.86 829.64 994.82C842.26 1015.84 840.7 1023.22 833.76 1024.38C828.3 1025.3 817.61 1013.73 811.32 1007.27C805.57 1001.36 786.97 990.07 786.97 990.07C786.97 990.07 798.68 996.22 809.15 1021.89C819.62 1047.57 808.58 1056.38 802.62 1054.87C797.57 1053.59 790.95 1043.48 785.35 1032.27C778.5 1018.56 766.06 1009.46 766.06 1009.46C766.06 1009.46 789.39 1061.79 767.91 1061.33C759.86 1061.16 749.17 1026.39 738.22 1021.74C688.9 1000.81 685.82 962.48 685.82 962.48" stroke="#1A2E35" stroke-width="2" stroke-linecap="round" stroke-linejoin="round"/>
<path d="M953.79 616.88C1002.02 616.88 1041.11 577.651 1041.11 529.26C1041.11 480.869 1002.02 441.64 953.79 441.64C905.565 441.64 866.47 480.869 866.47 529.26C866.47 577.651 905.565 616.88 953.79 616.88Z" fill="#FFE8CF"/>
<path d="M1080.75 914.88C1129.09 944.27 1128.97 977.08 1128.97 977.08H863.48C863.48 977.08 876.19 938.71 899.48 924.07C947.75 893.72 1046.13 893.83 1080.75 914.88Z" fill="#1A2E35"/>
<path d="M845.89 861.22C845.89 861.22 880.59 947.42 980.62 957.86C1064.52 966.62 1096.31 942.34 1096.31 942.34C1096.31 942.34 1019.4 1016.73 1022.97 1064.11C1025.96 1103.74 1065.82 1142.01 1122.96 1136.37C1180.1 1130.73 1304.19 1051.77 1298.06 900.73C1292.34 759.89 1216.93 699.28 1181.49 671.85C1117.13 622.03 1029.56 601.38 943.24 607.98C856.56 614.6 772.21 655.9 721.03 704.88C668.78 754.89 625.28 835.93 632.13 900.07C638.49 959.61 666.69 974.18 666.69 974.18H789.41C789.41 974.18 792.6 940.8 807.07 909.58C821.53 878.36 845.9 861.22 845.9 861.22H845.89Z" fill="#FF337F"/>
<path opacity="0.3" d="M973.83 606.87C969.63 609.92 966.73 614.6 966.73 620.17C966.73 629.43 974.32 636.92 983.58 636.93C992.84 636.93 1000.34 629.43 1000.34 620.17C1000.34 615.06 997.92 610.67 994.33 607.6C988.1 607.29 981.92 606.8 975.66 606.78C975.05 606.78 974.44 606.87 973.84 606.87H973.83ZM872.38 621.07C872.88 629.89 880.11 636.91 889.05 636.92C898.31 636.92 905.81 629.42 905.81 620.16C905.81 617.77 905.34 615.47 904.44 613.42C893.61 615.51 882.93 618.05 872.39 621.07H872.38ZM1061.25 620.17C1061.25 629.43 1068.75 636.92 1078.01 636.93C1085.28 636.93 1091.32 632.28 1093.67 625.82C1083.28 622.33 1072.68 619.41 1061.89 616.89C1061.67 617.98 1061.25 619.01 1061.25 620.17ZM1106.96 682.63C1106.96 691.89 1114.46 699.39 1123.72 699.39C1132.98 699.39 1140.57 691.89 1140.57 682.63C1140.57 673.37 1132.98 665.87 1123.72 665.87C1114.46 665.87 1106.97 673.37 1106.96 682.63ZM1012.44 682.63C1012.44 691.89 1020.03 699.39 1029.29 699.39C1038.55 699.39 1046.05 691.89 1046.05 682.63C1046.05 673.37 1038.55 665.87 1029.29 665.87C1020.03 665.87 1012.44 673.37 1012.44 682.63ZM918.01 682.63C918.01 691.89 925.51 699.39 934.77 699.39C944.03 699.39 951.53 691.89 951.53 682.63C951.53 673.37 944.03 665.87 934.77 665.87C925.51 665.87 918.01 673.37 918.01 682.63ZM823.48 682.63C823.48 691.89 830.98 699.39 840.24 699.39C849.5 699.39 857 691.89 857 682.63C857 673.37 849.5 665.87 840.24 665.87C830.98 665.87 823.48 673.37 823.48 682.63ZM733.51 694.02C736.57 697.3 740.87 699.39 745.71 699.39C754.97 699.39 762.47 691.89 762.47 682.63C762.47 679.35 761.27 676.47 759.65 673.89C750.29 680.33 741.66 687.08 733.51 694.01V694.02ZM1212.69 698.3C1209.46 695.21 1206.39 692.72 1203.31 690.01C1205.23 693.89 1208.56 696.84 1212.69 698.3ZM1155.78 745.2C1155.78 754.46 1163.28 761.96 1172.54 761.96C1181.8 761.96 1189.3 754.46 1189.3 745.2C1189.3 735.94 1181.81 728.35 1172.54 728.35C1163.28 728.35 1155.78 735.94 1155.78 745.2ZM1061.25 745.2C1061.25 754.46 1068.75 761.96 1078.01 761.96C1087.27 761.96 1094.86 754.46 1094.86 745.2C1094.86 735.94 1087.27 728.35 1078.01 728.35C1068.75 728.35 1061.25 735.94 1061.25 745.2ZM966.73 745.2C966.73 754.46 974.32 761.96 983.58 761.96C992.84 761.96 1000.34 754.46 1000.34 745.2C1000.34 735.94 992.84 728.35 983.58 728.35C974.32 728.35 966.73 735.94 966.73 745.2ZM872.2 745.2C872.2 754.46 879.79 761.96 889.05 761.96C898.31 761.96 905.81 754.46 905.81 745.2C905.81 735.94 898.31 728.35 889.05 728.35C879.79 728.35 872.2 735.94 872.2 745.2ZM777.77 745.2C777.77 754.46 785.27 761.96 794.53 761.96C803.79 761.96 811.29 754.46 811.29 745.2C811.29 735.94 803.79 728.35 794.53 728.35C785.27 728.35 777.77 735.94 777.77 745.2ZM699.09 728.53C693.81 734.8 688.67 741.25 683.79 748.02C685.17 755.89 691.73 761.96 700 761.96C709.26 761.96 716.76 754.46 716.76 745.2C716.76 735.94 709.26 728.35 700 728.35C699.68 728.35 699.41 728.52 699.09 728.53ZM1250.3 745.2C1250.3 752.18 1254.53 758.16 1260.59 760.68C1257.29 754.82 1254.16 748.63 1250.66 743.38C1250.59 744 1250.3 744.56 1250.3 745.2ZM1201.49 807.67C1201.49 816.93 1208.99 824.43 1218.25 824.43C1227.51 824.43 1235.1 816.93 1235.1 807.67C1235.1 798.41 1227.51 790.91 1218.25 790.91C1208.99 790.91 1201.49 798.41 1201.49 807.67ZM1106.96 807.67C1106.96 816.93 1114.46 824.43 1123.72 824.43C1132.98 824.43 1140.57 816.93 1140.57 807.67C1140.57 798.41 1132.98 790.91 1123.72 790.91C1114.46 790.91 1106.97 798.41 1106.96 807.67ZM1012.44 807.67C1012.44 816.93 1020.03 824.43 1029.29 824.43C1038.55 824.43 1046.05 816.93 1046.05 807.67C1046.05 798.41 1038.55 790.91 1029.29 790.91C1020.03 790.91 1012.44 798.41 1012.44 807.67ZM918.01 807.67C918.01 816.93 925.51 824.43 934.77 824.43C944.03 824.43 951.53 816.93 951.53 807.67C951.53 798.41 944.03 790.91 934.77 790.91C925.51 790.91 918.01 798.41 918.01 807.67ZM823.48 807.67C823.48 816.93 830.98 824.43 840.24 824.43C849.5 824.43 857 816.93 857 807.67C857 798.41 849.5 790.91 840.24 790.91C830.98 790.91 823.48 798.41 823.48 807.67ZM728.95 807.67C728.95 816.93 736.45 824.43 745.71 824.43C754.97 824.43 762.47 816.93 762.47 807.67C762.47 798.41 754.97 790.91 745.71 790.91C736.45 790.91 728.95 798.41 728.95 807.67ZM643.81 822.6C646.05 823.71 648.52 824.42 651.19 824.42C660.45 824.42 667.95 816.92 667.95 807.66C667.95 800.52 663.49 794.51 657.21 792.09C652.15 802.14 647.53 812.34 643.82 822.59L643.81 822.6ZM1250.3 870.14C1250.3 879.4 1257.8 886.9 1267.06 886.9C1276.32 886.9 1283.82 879.4 1283.82 870.14C1283.82 860.88 1276.32 853.38 1267.06 853.38C1257.8 853.38 1250.3 860.88 1250.3 870.14ZM1155.78 870.14C1155.78 879.4 1163.28 886.9 1172.54 886.9C1181.8 886.9 1189.3 879.4 1189.3 870.14C1189.3 860.88 1181.81 853.38 1172.54 853.38C1163.28 853.38 1155.78 860.88 1155.78 870.14ZM1061.25 870.14C1061.25 879.4 1068.75 886.9 1078.01 886.9C1087.27 886.9 1094.86 879.4 1094.86 870.14C1094.86 860.88 1087.27 853.38 1078.01 853.38C1068.75 853.38 1061.25 860.88 1061.25 870.14ZM966.73 870.14C966.73 879.4 974.32 886.9 983.58 886.9C992.84 886.9 1000.34 879.4 1000.34 870.14C1000.34 860.88 992.84 853.38 983.58 853.38C974.32 853.38 966.73 860.88 966.73 870.14ZM872.2 870.14C872.2 879.4 879.79 886.9 889.05 886.9C898.31 886.9 905.81 879.4 905.81 870.14C905.81 860.88 898.31 853.38 889.05 853.38C879.79 853.38 872.2 860.88 872.2 870.14ZM777.77 870.14C777.77 879.4 785.27 886.9 794.53 886.9C803.79 886.9 811.29 879.4 811.29 870.14C811.29 860.88 803.79 853.38 794.53 853.38C785.27 853.38 777.77 860.88 777.77 870.14ZM683.24 870.14C683.24 879.4 690.74 886.9 700 886.9C709.26 886.9 716.76 879.4 716.76 870.14C716.76 860.88 709.26 853.38 700 853.38C690.74 853.38 683.24 860.88 683.24 870.14ZM1201.49 932.61C1201.49 941.87 1208.99 949.46 1218.25 949.46C1227.51 949.46 1235.1 941.87 1235.1 932.61C1235.1 923.35 1227.51 915.85 1218.25 915.85C1208.99 915.85 1201.49 923.35 1201.49 932.61ZM1106.96 932.61C1106.96 941.87 1114.46 949.46 1123.72 949.46C1132.98 949.46 1140.57 941.87 1140.57 932.61C1140.57 923.35 1132.98 915.85 1123.72 915.85C1114.46 915.85 1106.97 923.35 1106.96 932.61ZM1012.44 932.61C1012.44 941.87 1020.03 949.46 1029.29 949.46C1038.55 949.46 1046.05 941.87 1046.05 932.61C1046.05 923.35 1038.55 915.85 1029.29 915.85C1020.03 915.85 1012.44 923.35 1012.44 932.61ZM918.01 932.61C918.01 935 918.48 937.29 919.38 939.35C925.69 942.72 932.6 945.7 939.87 948.36C946.6 946.16 951.53 940.07 951.53 932.61C951.53 923.35 944.03 915.85 934.77 915.85C925.51 915.85 918.01 923.35 918.01 932.61ZM728.95 932.61C728.95 941.87 736.45 949.46 745.71 949.46C754.97 949.46 762.47 941.87 762.47 932.61C762.47 923.35 754.97 915.85 745.71 915.85C736.45 915.85 728.95 923.35 728.95 932.61ZM636.71 924.69C639.14 934.02 642.02 941.89 645.18 948.18C647.05 948.91 649.06 949.46 651.19 949.46C660.45 949.46 667.95 941.87 667.95 932.61C667.95 923.35 660.45 915.85 651.19 915.85C644.85 915.85 639.56 919.5 636.71 924.69ZM1296.02 932.61C1296.02 933.96 1296.45 935.17 1296.75 936.44C1297.12 932.75 1297.54 929.12 1297.75 925.33C1296.68 927.54 1296.02 929.99 1296.02 932.62V932.61ZM1250.3 995.17C1250.3 1004.43 1257.8 1011.93 1267.06 1011.93C1271.29 1011.93 1275.04 1010.23 1277.99 1007.65C1279.98 1003.21 1281.81 998.66 1283.54 993.99C1282.9 985.31 1275.9 978.42 1267.06 978.42C1257.8 978.42 1250.3 985.92 1250.3 995.18V995.17ZM1155.78 995.17C1155.78 1004.43 1163.28 1011.93 1172.54 1011.93C1181.8 1011.93 1189.3 1004.43 1189.3 995.17C1189.3 985.91 1181.81 978.41 1172.54 978.41C1163.28 978.41 1155.78 985.91 1155.78 995.17ZM1061.25 995.17C1061.25 1004.43 1068.75 1011.93 1078.01 1011.93C1087.27 1011.93 1094.86 1004.43 1094.86 995.17C1094.86 985.91 1087.27 978.41 1078.01 978.41C1068.75 978.41 1061.25 985.91 1061.25 995.17ZM1201.49 1057.64C1201.49 1066.9 1208.99 1074.4 1218.25 1074.4C1227.51 1074.4 1235.1 1066.9 1235.1 1057.64C1235.1 1048.38 1227.51 1040.89 1218.25 1040.88C1208.99 1040.88 1201.49 1048.38 1201.49 1057.64ZM1106.96 1057.64C1106.96 1066.9 1114.46 1074.4 1123.72 1074.4C1132.98 1074.4 1140.57 1066.9 1140.57 1057.64C1140.57 1048.38 1132.98 1040.89 1123.72 1040.88C1114.46 1040.88 1106.97 1048.38 1106.96 1057.64ZM1026.56 1041.43C1024.05 1049.34 1022.47 1057.06 1023.01 1064.1C1023.25 1067.25 1024.14 1070.37 1024.83 1073.48C1026.28 1073.89 1027.71 1074.39 1029.29 1074.39C1038.55 1074.39 1046.05 1066.89 1046.05 1057.63C1046.05 1048.37 1038.55 1040.88 1029.29 1040.87C1028.33 1040.87 1027.48 1041.26 1026.56 1041.42V1041.43ZM1155.78 1120.11C1155.78 1122.36 1156.25 1124.52 1157.06 1126.49C1166.52 1122.61 1176.24 1117.44 1186.38 1111.19C1183.4 1106.58 1178.44 1103.36 1172.54 1103.36C1163.28 1103.36 1155.78 1110.86 1155.78 1120.12V1120.11ZM1061.25 1120.11C1061.25 1121.17 1061.61 1122.11 1061.79 1123.11C1069.43 1127.74 1077.95 1131.43 1087.38 1133.77C1091.8 1130.72 1094.85 1125.85 1094.85 1120.11C1094.85 1110.85 1087.26 1103.35 1078 1103.35C1068.74 1103.35 1061.24 1110.85 1061.24 1120.11H1061.25Z" fill="white"/>
<path d="M888.76 631.21L907.94 678.39L942.51 631.25L978.18 681.14L1007.78 624.86" stroke="white" stroke-width="2" stroke-linecap="round" stroke-linejoin="round"/>
<path d="M951.91 689.21C951.91 684.75 948.3 681.14 943.84 681.14C939.38 681.14 935.77 684.75 935.77 689.21C935.77 693.67 939.38 697.28 943.84 697.28C948.3 697.28 951.91 693.67 951.91 689.21Z" fill="white"/>
<path d="M951.91 724.52C951.91 720.06 948.3 716.45 943.84 716.45C939.38 716.45 935.77 720.06 935.77 724.52C935.77 728.98 939.38 732.59 943.84 732.59C948.3 732.59 951.91 728.98 951.91 724.52Z" fill="white"/>
<path d="M1102.93 741.11C1102.93 741.11 1120.73 767.84 1123.91 813.94C1128.96 887.33 1099.51 930.73 1099.51 930.73" stroke="white" stroke-width="2" stroke-linecap="round" stroke-linejoin="round"/>
<path d="M836.27 761.59C836.27 761.59 832.02 783.58 834.84 805.8C837.66 828.02 844.27 849.97 844.27 849.97" stroke="white" stroke-width="2" stroke-linecap="round" stroke-linejoin="round"/>
<path d="M873.2 557.75C856.22 513.95 877.95 464.69 921.75 447.7C965.55 430.72 1014.82 452.46 1031.8 496.25C1048.78 540.04 1027.05 589.31 983.25 606.3C939.45 623.29 890.18 601.55 873.2 557.75Z" stroke="#1A2E35" stroke-width="2" stroke-linecap="round" stroke-linejoin="round"/>
<path d="M932.97 534.66C931.75 529.51 934.89 524.35 939.99 523.14C945.09 521.93 950.21 525.13 951.44 530.28C952.66 535.44 949.52 540.59 944.42 541.8C939.32 543.01 934.2 539.81 932.97 534.66Z" fill="#FF337F"/>
<path d="M914.63 526.51C912.63 523.32 913.59 519.12 916.77 517.12C919.96 515.12 924.16 516.08 926.17 519.27C928.17 522.46 927.21 526.66 924.02 528.66C920.83 530.66 916.63 529.7 914.63 526.51Z" fill="#1A2E35"/>
<path d="M873.78 531.46C871.78 528.27 872.74 524.07 875.93 522.06C879.12 520.06 883.32 521.02 885.32 524.21C887.32 527.4 886.36 531.6 883.18 533.6C879.99 535.6 875.79 534.64 873.78 531.46Z" fill="#1A2E35"/>
<path d="M932.11 549.28C932.11 549.28 934.31 559.1 930.26 565.33C924.27 574.56 913.38 576.13 913.38 576.13" stroke="#1A2E35" stroke-width="2" stroke-linecap="round" stroke-linejoin="round"/>
<path d="M898.45 524.01L895.05 560.81L912.9 553.94" stroke="#1A2E35" stroke-width="2" stroke-linecap="round" stroke-linejoin="round"/>
<path d="M1085.53 402.47C1089.18 407.86 1092.17 413.93 1093.78 420.63C1100.96 450.47 1082.82 480.43 1052.98 487.62C1044.59 489.64 1036.24 489.45 1028.33 487.74C1040.12 516.09 1035.29 546 1035.29 546C1035.29 546 1008.21 548.94 967.13 521.59C937.6 501.93 921.56 477.2 914.18 463.57C910.57 470.65 905.51 478.81 898.38 484.8C889.38 492.36 872.79 499.07 872.79 499.07C872.79 499.07 877.18 484.96 886 473.83C891.48 466.91 906.11 447.88 932.7 441.99C957.04 436.6 974.5 441.72 981.17 443.99C982.99 444.61 984.18 445.65 985.89 446.35C978.78 416.54 997 386.65 1026.81 379.48C1039.55 376.42 1052.01 378.81 1063.02 383.96" fill="#1A2E35"/>
<path d="M1091.56 1123.63C1091.56 1123.63 1080.89 1147.37 1065.79 1158.35C1050.68 1169.32 1032.65 1172.26 1018.51 1179.44C1004.37 1186.62 990.86 1202.88 981.44 1199.81C972.02 1196.73 975.79 1186.54 986.83 1171.78C995.67 1159.96 1007.02 1153.26 1007.02 1153.26C1007.02 1153.26 997.19 1158.8 986.55 1171.23C975.91 1183.66 972.48 1203.32 961.26 1201.57C950.03 1199.82 953.76 1164.67 974.18 1146.85C993.39 1130.09 991.53 1132.61 991.53 1132.61C991.53 1132.61 986.64 1135.02 974.17 1146.83C962.73 1157.66 950.09 1182.87 941.5 1180.62C932.91 1178.36 940.66 1142.63 963.1 1121.71C997.82 1089.33 1042.81 1076.58 1042.81 1076.58" stroke="#1A2E35" stroke-width="2" stroke-linecap="round" stroke-linejoin="round"/>
<path d="M746.66 947.17C746.66 947.17 805.64 954.86 829.64 994.82C842.26 1015.84 840.7 1023.22 833.76 1024.38C828.3 1025.3 817.61 1013.73 811.32 1007.27C805.57 1001.36 786.97 990.07 786.97 990.07C786.97 990.07 798.68 996.22 809.15 1021.89C819.62 1047.57 808.58 1056.38 802.62 1054.87C797.57 1053.59 790.95 1043.48 785.35 1032.27C778.5 1018.56 766.06 1009.46 766.06 1009.46C766.06 1009.46 789.39 1061.79 767.91 1061.33C759.86 1061.16 749.17 1026.39 738.22 1021.74C688.9 1000.81 685.82 962.48 685.82 962.48" stroke="#1A2E35" stroke-width="2" stroke-linecap="round" stroke-linejoin="round"/>
<path d="M649.19 753.28C649.19 735.85 635.06 721.72 617.63 721.72H182.93C165.5 721.72 151.37 735.85 151.37 753.28L190.51 983.86C190.51 1001.29 204.64 1015.42 222.07 1015.42H656.77C674.2 1015.42 688.33 1001.29 688.33 983.86L649.19 753.28Z" stroke="#1A2E35" stroke-width="2" stroke-linecap="round" stroke-linejoin="round"/>
<path d="M616.71 746.49L658.89 979.29" stroke="#1A2E35" stroke-width="2" stroke-linecap="round" stroke-linejoin="round"/>
<path d="M426.2 862.28C426.2 848.23 414.81 836.84 400.75 836.84C386.7 836.84 375.3 848.23 375.3 862.28C375.3 876.34 386.7 887.73 400.75 887.73C414.8 887.73 426.2 876.34 426.2 862.28Z" fill="#FF337F"/>
<path d="M497.62 1036.93C497.62 1036.93 504.02 1063.37 524.86 1081.26C545.7 1099.15 580.98 1108.5 580.98 1108.5V1153.07H310.83V1104.04C310.83 1104.04 340.98 1098.04 357.97 1081.26C374.96 1064.49 378.77 1036.93 378.77 1036.93H497.63H497.62Z" stroke="#1A2E35" stroke-width="2" stroke-linecap="round" stroke-linejoin="round"/>
<path d="M483.43 1054.73C483.43 1054.73 491.11 1079 510.73 1096.47C530.36 1113.94 558.9 1119.02 558.9 1119.02V1140.84" stroke="#1A2E35" stroke-width="2" stroke-linecap="round" stroke-linejoin="round"/>
<g opacity="0.5">
<path d="M1338.08 401.906L1206.96 487.382C1203.7 489.505 1202.78 493.867 1204.91 497.124L1225.94 529.384C1228.06 532.642 1232.42 533.561 1235.68 531.437L1366.8 445.962C1370.06 443.838 1370.97 439.477 1368.85 436.219L1347.82 403.959C1345.7 400.702 1341.34 399.783 1338.08 401.906Z" fill="white"/>
<mask id="mask0_191_3" style="mask-type:luminance" maskUnits="userSpaceOnUse" x="1204" y="411" width="149" height="121">
<path d="M1323.61 411.469L1352.33 455.524L1237.92 530.111C1233.48 533 1227.54 531.754 1224.64 527.315L1206.39 499.318C1203.5 494.886 1204.75 488.941 1209.19 486.047L1323.61 411.461L1323.61 411.469Z" fill="white"/>
</mask>
<g mask="url(#mask0_191_3)">
<path d="M1323.5 411.406L1292.89 431.361L1321.61 475.417L1352.22 455.462L1323.5 411.406Z" fill="#F0F2F5"/>
<path d="M1292.89 431.355L1262.28 451.31L1291 495.365L1321.61 475.411L1292.89 431.355Z" fill="#E1E6EB"/>
<path d="M1262.28 451.328L1231.67 471.282L1260.39 515.338L1291 495.383L1262.28 451.328Z" fill="#D2D9E1"/>
<path d="M1204.92 497.21L1225.96 529.48C1228.08 532.74 1232.44 533.65 1235.7 531.53L1260.42 515.42L1231.7 471.36L1206.98 487.47C1203.72 489.59 1202.81 493.95 1204.93 497.21H1204.92Z" fill="#B4C0CD"/>
</g>
<path d="M1207.52 488.32C1204.73 490.14 1203.95 493.88 1205.76 496.66L1226.8 528.93C1228.62 531.72 1232.36 532.5 1235.14 530.69L1366.27 445.22C1369.06 443.4 1369.84 439.66 1368.03 436.88L1346.99 404.61C1345.17 401.82 1341.43 401.04 1338.65 402.85L1207.52 488.32ZM1206.97 487.47L1338.1 402C1341.36 399.88 1345.71 400.8 1347.84 404.05L1368.88 436.32C1371 439.58 1370.08 443.93 1366.83 446.06L1235.7 531.53C1232.44 533.65 1228.09 532.73 1225.96 529.48L1204.93 497.21C1202.81 493.95 1203.73 489.6 1206.98 487.47H1206.97Z" fill="#F0F2F5"/>
<path d="M1345.01 422.2C1342.42 423.89 1341.69 427.37 1343.37 429.96C1345.06 432.55 1348.54 433.28 1351.13 431.6C1353.72 429.91 1354.45 426.43 1352.77 423.84C1351.08 421.25 1347.6 420.52 1345.01 422.2ZM1344.46 421.35C1347.52 419.36 1351.62 420.22 1353.61 423.28C1355.6 426.34 1354.74 430.44 1351.68 432.43C1348.62 434.42 1344.52 433.56 1342.53 430.5C1340.54 427.44 1341.4 423.34 1344.46 421.35Z" fill="#1B1A2E"/>
</g>
<path d="M1329.43 407.47L1238.76 535.054C1236.5 538.223 1237.25 542.618 1240.42 544.87L1271.81 567.178C1274.98 569.431 1279.37 568.687 1281.62 565.518L1372.29 437.934C1374.55 434.765 1373.8 430.37 1370.63 428.118L1339.24 405.809C1336.07 403.557 1331.68 404.301 1329.43 407.47Z" fill="white"/>
<mask id="mask1_191_3" style="mask-type:luminance" maskUnits="userSpaceOnUse" x="1238" y="421" width="125" height="147">
<path d="M1319.45 421.663L1362.32 452.128L1283.2 563.458C1280.14 567.77 1274.15 568.79 1269.83 565.72L1242.59 546.36C1238.28 543.296 1237.26 537.308 1240.33 532.988L1319.45 421.657L1319.45 421.663Z" fill="white"/>
</mask>
<g mask="url(#mask1_191_3)">
<path d="M1319.35 421.649L1298.18 451.434L1341.05 481.899L1362.22 452.114L1319.35 421.649Z" fill="#F0F2F5"/>
<path d="M1298.19 451.432L1277.02 481.217L1319.89 511.682L1341.06 481.897L1298.19 451.432Z" fill="#E1E6EB"/>
<path d="M1277.01 481.22L1255.84 511.004L1298.71 541.469L1319.88 511.684L1277.01 481.22Z" fill="#D2D9E1"/>
<path d="M1240.45 544.93L1271.85 567.25C1275.02 569.5 1279.41 568.76 1281.66 565.59L1298.75 541.54L1255.88 511.07L1238.79 535.12C1236.54 538.29 1237.28 542.68 1240.45 544.93Z" fill="#B4C0CD"/>
</g>
<path d="M1331.91 406.56C1331.28 406.97 1330.73 407.5 1330.29 408.12L1239.61 535.71C1238.68 537.02 1238.31 538.62 1238.58 540.21C1238.85 541.8 1239.72 543.19 1241.03 544.12L1272.43 566.44C1274.46 567.89 1277.13 567.94 1279.22 566.58C1279.85 566.17 1280.4 565.64 1280.84 565.02L1371.52 437.43C1372.45 436.12 1372.82 434.52 1372.55 432.93C1372.28 431.34 1371.41 429.95 1370.1 429.02L1338.7 406.7C1336.67 405.25 1334 405.2 1331.91 406.56ZM1331.37 405.71C1333.72 404.18 1336.86 404.15 1339.29 405.87L1370.69 428.19C1373.86 430.44 1374.6 434.83 1372.35 438L1281.67 565.59C1281.14 566.33 1280.5 566.94 1279.78 567.41C1277.43 568.94 1274.29 568.97 1271.86 567.25L1240.46 544.93C1237.29 542.68 1236.55 538.29 1238.8 535.12L1329.48 407.53C1330.01 406.79 1330.65 406.18 1331.37 405.71Z" fill="#F0F2F5"/>
<path d="M1344.81 422.34C1344.22 422.72 1343.72 423.21 1343.3 423.79C1341.51 426.31 1342.1 429.82 1344.62 431.61C1346.51 432.95 1348.99 433 1350.93 431.74C1351.52 431.36 1352.02 430.87 1352.44 430.29C1353.31 429.07 1353.65 427.58 1353.4 426.11C1353.15 424.63 1352.34 423.34 1351.12 422.47C1349.23 421.13 1346.75 421.08 1344.81 422.34ZM1344.26 421.5C1346.47 420.06 1349.42 420.03 1351.7 421.65C1354.68 423.77 1355.37 427.89 1353.26 430.87C1352.76 431.57 1352.16 432.14 1351.48 432.58C1349.27 434.02 1346.32 434.05 1344.04 432.43C1341.06 430.31 1340.37 426.19 1342.48 423.21C1342.98 422.51 1343.58 421.94 1344.26 421.5Z" fill="#F0F2F5"/>
<path d="M461.83 561.13H443.28V579.68H461.83V561.13Z" fill="#F0F2F5"/>
<path d="M515.54 620.23H389.57V520.58H515.54V620.23ZM390.49 619.31H514.62V521.49H390.49V619.31Z" fill="#F0F2F5"/>
<path d="M486.3 605.98H481.71C481.46 605.98 481.25 605.77 481.25 605.52C481.25 605.27 481.46 605.06 481.71 605.06H486.3C486.55 605.06 486.76 605.27 486.76 605.52C486.76 605.77 486.55 605.98 486.3 605.98ZM477.11 605.98H472.52C472.27 605.98 472.06 605.77 472.06 605.52C472.06 605.27 472.27 605.06 472.52 605.06H477.11C477.36 605.06 477.57 605.27 477.57 605.52C477.57 605.77 477.36 605.98 477.11 605.98ZM467.93 605.98H463.34C463.09 605.98 462.88 605.77 462.88 605.52C462.88 605.27 463.09 605.06 463.34 605.06H467.93C468.18 605.06 468.39 605.27 468.39 605.52C468.39 605.77 468.18 605.98 467.93 605.98ZM458.75 605.98H454.16C453.91 605.98 453.7 605.77 453.7 605.52C453.7 605.27 453.91 605.06 454.16 605.06H458.75C459 605.06 459.21 605.27 459.21 605.52C459.21 605.77 459 605.98 458.75 605.98ZM449.57 605.98H444.98C444.73 605.98 444.52 605.77 444.52 605.52C444.52 605.27 444.73 605.06 444.98 605.06H449.57C449.82 605.06 450.03 605.27 450.03 605.52C450.03 605.77 449.82 605.98 449.57 605.98ZM440.39 605.98H435.8C435.55 605.98 435.34 605.77 435.34 605.52C435.34 605.27 435.55 605.06 435.8 605.06H440.39C440.64 605.06 440.85 605.27 440.85 605.52C440.85 605.77 440.64 605.98 440.39 605.98ZM431.2 605.98H426.61C426.36 605.98 426.15 605.77 426.15 605.52C426.15 605.27 426.36 605.06 426.61 605.06H431.2C431.45 605.06 431.66 605.27 431.66 605.52C431.66 605.77 431.45 605.98 431.2 605.98ZM422.02 605.98H417.43C417.18 605.98 416.97 605.77 416.97 605.52C416.97 605.27 417.16 605.07 417.41 605.06C417.17 605.05 416.97 604.85 416.97 604.6V600.01C416.97 599.76 417.18 599.55 417.43 599.55C417.68 599.55 417.89 599.76 417.89 600.01V604.6C417.89 604.84 417.7 605.04 417.46 605.06H422.02C422.27 605.06 422.48 605.27 422.48 605.52C422.48 605.77 422.27 605.98 422.02 605.98ZM487.67 602.77C487.42 602.77 487.21 602.56 487.21 602.31V597.72C487.21 597.47 487.42 597.26 487.67 597.26C487.92 597.26 488.13 597.47 488.13 597.72V602.31C488.13 602.56 487.92 602.77 487.67 602.77ZM417.43 595.88C417.18 595.88 416.97 595.67 416.97 595.42V590.83C416.97 590.58 417.18 590.37 417.43 590.37C417.68 590.37 417.89 590.58 417.89 590.83V595.42C417.89 595.67 417.68 595.88 417.43 595.88ZM487.67 593.58C487.42 593.58 487.21 593.37 487.21 593.12V588.53C487.21 588.28 487.42 588.07 487.67 588.07C487.92 588.07 488.13 588.28 488.13 588.53V593.12C488.13 593.37 487.92 593.58 487.67 593.58ZM417.43 586.7C417.18 586.7 416.97 586.49 416.97 586.24V581.65C416.97 581.4 417.18 581.19 417.43 581.19C417.68 581.19 417.89 581.4 417.89 581.65V586.24C417.89 586.49 417.68 586.7 417.43 586.7ZM487.67 584.4C487.42 584.4 487.21 584.19 487.21 583.94V579.35C487.21 579.1 487.42 578.89 487.67 578.89C487.92 578.89 488.13 579.1 488.13 579.35V583.94C488.13 584.19 487.92 584.4 487.67 584.4ZM417.43 577.52C417.18 577.52 416.97 577.31 416.97 577.06V572.47C416.97 572.22 417.18 572.01 417.43 572.01C417.68 572.01 417.89 572.22 417.89 572.47V577.06C417.89 577.31 417.68 577.52 417.43 577.52ZM487.67 575.22C487.42 575.22 487.21 575.01 487.21 574.76V570.17C487.21 569.92 487.42 569.71 487.67 569.71C487.92 569.71 488.13 569.92 488.13 570.17V574.76C488.13 575.01 487.92 575.22 487.67 575.22ZM417.43 568.33C417.18 568.33 416.97 568.12 416.97 567.87V563.28C416.97 563.03 417.18 562.82 417.43 562.82C417.68 562.82 417.89 563.03 417.89 563.28V567.87C417.89 568.12 417.68 568.33 417.43 568.33ZM487.67 566.04C487.42 566.04 487.21 565.83 487.21 565.58V560.99C487.21 560.74 487.42 560.53 487.67 560.53C487.92 560.53 488.13 560.74 488.13 560.99V565.58C488.13 565.83 487.92 566.04 487.67 566.04ZM417.43 559.15C417.18 559.15 416.97 558.94 416.97 558.69V554.1C416.97 553.85 417.18 553.64 417.43 553.64C417.68 553.64 417.89 553.85 417.89 554.1V558.69C417.89 558.94 417.68 559.15 417.43 559.15ZM487.67 556.86C487.42 556.86 487.21 556.65 487.21 556.4V551.81C487.21 551.56 487.42 551.35 487.67 551.35C487.92 551.35 488.13 551.56 488.13 551.81V556.4C488.13 556.65 487.92 556.86 487.67 556.86ZM417.43 549.97C417.18 549.97 416.97 549.76 416.97 549.51V544.92C416.97 544.67 417.18 544.46 417.43 544.46C417.68 544.46 417.89 544.67 417.89 544.92V549.51C417.89 549.76 417.68 549.97 417.43 549.97ZM487.67 547.67C487.42 547.67 487.21 547.46 487.21 547.21V542.62C487.21 542.37 487.42 542.16 487.67 542.16C487.92 542.16 488.13 542.37 488.13 542.62V547.21C488.13 547.46 487.92 547.67 487.67 547.67ZM417.43 540.79C417.18 540.79 416.97 540.58 416.97 540.33V535.74C416.97 535.49 417.18 535.28 417.43 535.28C417.68 535.28 417.89 535.49 417.89 535.74V540.33C417.89 540.58 417.68 540.79 417.43 540.79ZM487.67 538.49C487.42 538.49 487.21 538.28 487.21 538.03V535.73H485.83C485.58 535.73 485.37 535.52 485.37 535.27C485.37 535.02 485.58 534.81 485.83 534.81H488.13V538.02C488.13 538.27 487.92 538.48 487.67 538.48V538.49ZM481.25 535.74H476.66C476.41 535.74 476.2 535.53 476.2 535.28C476.2 535.03 476.41 534.82 476.66 534.82H481.25C481.5 534.82 481.71 535.03 481.71 535.28C481.71 535.53 481.5 535.74 481.25 535.74ZM472.06 535.74H467.47C467.22 535.74 467.01 535.53 467.01 535.28C467.01 535.03 467.22 534.82 467.47 534.82H472.06C472.31 534.82 472.52 535.03 472.52 535.28C472.52 535.53 472.31 535.74 472.06 535.74ZM462.88 535.74H458.29C458.04 535.74 457.83 535.53 457.83 535.28C457.83 535.03 458.04 534.82 458.29 534.82H462.88C463.13 534.82 463.34 535.03 463.34 535.28C463.34 535.53 463.13 535.74 462.88 535.74ZM453.7 535.74H449.11C448.86 535.74 448.65 535.53 448.65 535.28C448.65 535.03 448.86 534.82 449.11 534.82H453.7C453.95 534.82 454.16 535.03 454.16 535.28C454.16 535.53 453.95 535.74 453.7 535.74ZM444.52 535.74H439.93C439.68 535.74 439.47 535.53 439.47 535.28C439.47 535.03 439.68 534.82 439.93 534.82H444.52C444.77 534.82 444.98 535.03 444.98 535.28C444.98 535.53 444.77 535.74 444.52 535.74ZM435.34 535.74H430.75C430.5 535.74 430.29 535.53 430.29 535.28C430.29 535.03 430.5 534.82 430.75 534.82H435.34C435.59 534.82 435.8 535.03 435.8 535.28C435.8 535.53 435.59 535.74 435.34 535.74ZM426.15 535.74H421.56C421.31 535.74 421.1 535.53 421.1 535.28C421.1 535.03 421.31 534.82 421.56 534.82H426.15C426.4 534.82 426.61 535.03 426.61 535.28C426.61 535.53 426.4 535.74 426.15 535.74Z" fill="#F9A21B"/>
<path d="M419.37 533.33H415.48V537.22H419.37V533.33Z" fill="#1F4168"/>
<path d="M489.62 533.33H485.73V537.22H489.62V533.33Z" fill="#1F4168"/>
<path d="M419.37 603.57H415.48V607.46H419.37V603.57Z" fill="#1F4168"/>
<path d="M454.5 533.33H450.61V537.22H454.5V533.33Z" fill="#1F4168"/>
<path d="M454.5 603.57H450.61V607.46H454.5V603.57Z" fill="#1F4168"/>
<path d="M489.62 603.57H485.73V607.46H489.62V603.57Z" fill="#1F4168"/>
<path d="M419.37 568.45H415.48V572.34H419.37V568.45Z" fill="#1F4168"/>
<path d="M489.62 568.45H485.73V572.34H489.62V568.45Z" fill="#1F4168"/>
<path d="M512.32 565.89H526.75V551.45L512.32 565.89Z" fill="#1F4168"/>
<path d="M520.15 520.32L509.89 510.06L503.69 512.46L469.19 550.76L510.22 539.51L520.15 520.32ZM504.88 514.19L509.38 512.45L517.64 520.71L508.81 537.78L475.37 546.95L504.88 514.19Z" fill="#1F4168"/>
<path d="M519.164 500.773L509.879 510.057L521.094 521.272L530.378 511.988L519.164 500.773Z" fill="#1F4168"/>
<path d="M1092.78 430.758C1097.07 408.647 1079.13 386.572 1052.71 381.452C1026.3 376.331 1001.41 390.105 997.121 412.215C992.835 434.326 1010.77 456.401 1037.19 461.521C1063.61 466.642 1088.49 452.868 1092.78 430.758Z" fill="#1A2E35"/>
<mask id="mask2_191_3" style="mask-type:luminance" maskUnits="userSpaceOnUse" x="0" y="1176" width="438" height="313">
<path d="M437.85 1488.2H0V1176H437.85V1488.2Z" fill="white"/>
</mask>
<g mask="url(#mask2_191_3)">
<path d="M-12 1475H438V1267.29C438 1229.57 412.551 1199 381.158 1199H-12V1475Z" fill="#E7E7E9"/>
</g>
<path fill-rule="evenodd" clip-rule="evenodd" d="M80.3074 1201H25V1145.25C25 1176.04 49.7621 1201 80.3074 1201Z" fill="#E7E7E9"/>
<path fill-rule="evenodd" clip-rule="evenodd" d="M490 1440H437.85V1387.64C437.85 1416.56 461.198 1440 490 1440Z" fill="#E7E7E9"/>
<mask id="mask3_191_3" style="mask-type:luminance" maskUnits="userSpaceOnUse" x="1267" y="0" width="201" height="280">
<path d="M1267 279.552L1468 279.552V3.05176e-05L1267 3.05176e-05V279.552Z" fill="white"/>
</mask>
<g mask="url(#mask3_191_3)">
<path fill-rule="evenodd" clip-rule="evenodd" d="M1466.9 218.448V163L1390.33 163C1432.62 163 1466.9 187.825 1466.9 218.448Z" fill="#E7E7E9"/>
<path d="M1466 164L1343.43 164C1301.77 164 1268 145.833 1268 123.423V1.78814e-06L1466 1.78814e-06V164Z" fill="#E7E7E9"/>
</g>
<path fill-rule="evenodd" clip-rule="evenodd" d="M1268.45 55.4482V-3.62396e-05L1213 -3.62396e-05C1243.62 -3.62396e-05 1268.45 24.8246 1268.45 55.4482Z" fill="#E7E7E9"/>
</svg>
