<svg width="368" height="392" viewBox="0 0 368 392" fill="none" xmlns="http://www.w3.org/2000/svg">
<path d="M13.261 26.6961C6.5131 40.5574 10.2057 58.0462 25.0143 64.8039C42.5781 72.8218 72.0606 61.7305 69.7552 39.2957C66.6345 8.88072 27.2882 -2.13414 13.261 26.6961Z" fill="#FF7D61"/>
<path d="M11.6788 42.8908C11.3928 35.7272 14.185 28.218 18.7846 22.8356C23.6973 17.098 30.865 13.8932 38.3883 13.6647C42.754 13.5283 46.8342 14.7037 51.0066 15.9435C52.0321 16.253 53.1738 15.4417 53.47 14.4863C53.8161 13.3731 53.3136 12.433 52.3621 11.8342C48.6058 9.45668 43.8514 8.75378 39.4724 8.70153C35.0933 8.64928 30.6678 9.49156 26.673 11.1935C18.8649 14.5165 12.6321 21.0047 9.63825 28.9884C7.93696 33.5346 7.41659 38.3097 7.96994 43.1316C8.24096 45.5138 11.7753 45.2988 11.6788 42.8908Z" fill="#000105"/>
<path d="M67.7492 26.6459L67.6763 26.4869L67.7518 27.5057C67.9829 26.213 67.1309 24.9471 66.4703 23.9042C65.9994 23.1551 65.4822 22.4486 64.9417 21.7502C64.308 20.935 63.6202 20.1651 62.9195 19.4085C62.2188 18.6518 61.402 17.8127 60.4306 17.458C59.6089 17.1564 58.7896 17.1877 58.1123 17.8018C57.5148 18.3441 57.2182 19.2733 57.525 20.0532C57.753 20.6323 58.0629 21.0951 58.4409 21.5779C58.6779 21.8816 58.925 22.1643 59.1826 22.452C58.7656 21.9828 59.1373 22.3975 59.2278 22.5065C59.8306 23.1831 60.4234 23.8808 61.0134 24.5707C61.6035 25.2606 62.1358 25.9355 62.6892 26.6206C63.0563 27.0721 63.418 27.5079 63.8136 27.9408C63.888 28.0289 63.9675 28.1066 64.0419 28.1948C63.7738 27.9019 63.856 27.9874 64.2703 28.4488C64.6249 28.7642 65.0138 28.927 65.4646 29.0419L64.2305 28.2343L64.3474 28.3692C64.9928 29.0925 65.8675 29.4458 66.7899 28.9833C67.5854 28.5826 68.1254 27.5246 67.7387 26.6408L67.7492 26.6459Z" fill="#000105"/>
<path d="M49 47.2799C49.5 47.8799 49.85 48.3632 50.05 48.7299C50.25 49.0966 50.35 49.4466 50.35 49.7799C50.35 50.1799 50.0833 50.6466 49.55 51.1799C49.05 51.7132 48.55 51.9799 48.05 51.9799C47.3833 51.9799 46.85 51.8799 46.45 51.6799C46.05 51.4799 45.7167 51.1632 45.45 50.7299C44.9167 49.9299 44.2667 49.2466 43.5 48.6799C42.7333 48.0799 41.5333 47.7799 39.9 47.7799C38.5 47.7799 36.9 48.0966 35.1 48.7299C33.3333 49.3632 32.0667 50.1466 31.3 51.0799C30.6333 51.9132 30.05 53.1799 29.55 54.8799C29.0833 56.5799 28.85 58.2299 28.85 59.8299C28.85 61.7632 29.2667 63.5466 30.1 65.1799C30.9667 66.7799 32.2 68.0632 33.8 69.0299C35.4333 69.9966 37.3833 70.4799 39.65 70.4799C40.8833 70.4799 42.15 70.2466 43.45 69.7799C44.7833 69.2799 45.9333 68.4799 46.9 67.3799H46.85C47.45 66.7466 48.2 66.4299 49.1 66.4299C49.6333 66.4299 50.1333 66.6632 50.6 67.1299C51.1 67.5966 51.35 68.0632 51.35 68.5299C51.35 69.0299 51.2667 69.4799 51.1 69.8799C50.9667 70.2466 50.7 70.6632 50.3 71.1299C48.9333 72.6632 47.3167 73.7132 45.45 74.2799C43.5833 74.8466 41.35 75.1299 38.75 75.1299C36.45 75.1299 34.1167 74.5799 31.75 73.4799C29.4167 72.3799 27.6167 71.0466 26.35 69.4799C25.6833 68.5132 25.0333 67.1299 24.4 65.3299C23.8 63.4966 23.5 62.0132 23.5 60.8799C23.5 57.9799 23.9333 55.2299 24.8 52.6299C25.7 49.9966 27.0333 47.8966 28.8 46.3299C29.9667 45.2632 31.65 44.4632 33.85 43.9299C36.05 43.3966 38.0667 43.1299 39.9 43.1299C42.1333 43.1299 43.8833 43.4466 45.15 44.0799C46.45 44.6799 47.7333 45.7466 49 47.2799ZM75.4789 43.2299C77.7122 43.2299 79.7456 43.5132 81.5789 44.0799C83.4122 44.6132 84.9122 45.4132 86.0789 46.4799C88.1789 48.3799 89.6456 50.4632 90.4789 52.7299C91.3456 54.9632 91.7789 57.8299 91.7789 61.3299C91.7789 62.0632 91.6789 62.7299 91.4789 63.3299C91.3122 63.9299 91.0289 64.6966 90.6289 65.6299C90.1289 66.6632 89.8289 67.4799 89.7289 68.0799C89.0622 69.2466 87.9622 70.3632 86.4289 71.4299C84.9289 72.4966 83.2956 73.3632 81.5289 74.0299C79.7622 74.6966 78.2122 75.0299 76.8789 75.0299C70.4456 75.0299 65.8622 72.8299 63.1289 68.4299C62.3622 67.1966 61.7622 65.9132 61.3289 64.5799C60.9289 63.2466 60.7289 61.9466 60.7289 60.6799C60.7289 57.2799 61.3289 54.3299 62.5289 51.8299C63.7622 49.2966 65.4622 47.3299 67.6289 45.9299C68.9289 45.1632 70.2789 44.5299 71.6789 44.0299C73.1122 43.4966 74.3789 43.2299 75.4789 43.2299ZM65.9289 60.8299C65.9289 62.6299 66.3289 64.1132 67.1289 65.2799C67.9622 66.4466 69.2289 67.7132 70.9289 69.0799C72.3289 69.6132 73.2789 69.9632 73.7789 70.1299C74.2789 70.2632 74.8456 70.3299 75.4789 70.3299C78.8456 70.3299 81.5289 69.4132 83.5289 67.5799C85.5289 65.7466 86.5289 63.2299 86.5289 60.0299C86.5289 57.4966 86.2456 55.4966 85.6789 54.0299C85.1122 52.5632 84.0956 51.2466 82.6289 50.0799C81.8622 49.4466 80.8789 48.9799 79.6789 48.6799C78.5122 48.3799 77.2456 48.2299 75.8789 48.2299C73.8122 48.2299 72.0289 48.8466 70.5289 50.0799C69.0289 51.2799 67.8789 52.8466 67.0789 54.7799C66.3122 56.7132 65.9289 58.7299 65.9289 60.8299ZM123.859 46.9299C123.859 45.9632 124.076 45.1299 124.509 44.4299C124.976 43.6966 125.659 43.3299 126.559 43.3299C127.326 43.3299 128.009 43.4799 128.609 43.7799C129.209 44.0799 129.509 44.5799 129.509 45.2799C129.509 46.6466 129.443 48.5632 129.309 51.0299C129.176 53.4299 129.109 55.2132 129.109 56.3799C129.109 58.2132 129.176 60.6632 129.309 63.7299C129.443 66.6632 129.509 68.8132 129.509 70.1799C129.509 71.2799 129.493 72.0966 129.459 72.6299C129.459 73.1632 129.159 73.6966 128.559 74.2299C127.993 74.7299 127.109 74.9799 125.909 74.9799C125.276 74.9799 124.726 74.8799 124.259 74.6799C123.826 74.4466 123.526 74.1966 123.359 73.9299C121.793 72.0299 119.509 68.7966 116.509 64.2299C113.143 59.1299 110.393 55.2299 108.259 52.5299C108.526 54.9299 108.659 57.8632 108.659 61.3299C108.659 62.8632 108.626 64.8632 108.559 67.3299C108.526 69.7632 108.459 71.3632 108.359 72.1299C108.226 73.0966 107.926 73.8466 107.459 74.3799C107.026 74.8799 106.326 75.1299 105.359 75.1299C104.626 75.1299 104.076 74.9299 103.709 74.5299C103.376 74.0966 103.176 73.3632 103.109 72.3299C103.076 70.9632 103.159 68.9132 103.359 66.1799C103.393 65.7466 103.443 64.9966 103.509 63.9299C103.576 62.8632 103.609 61.9132 103.609 61.0799C103.609 58.7799 103.493 56.1466 103.259 53.1799C103.059 49.9132 102.959 47.4966 102.959 45.9299C102.959 45.1299 103.243 44.5132 103.809 44.0799C104.409 43.6466 105.093 43.4299 105.859 43.4299C106.526 43.4299 107.226 43.5966 107.959 43.9299C110.826 47.5299 114.709 52.8966 119.609 60.0299L124.309 67.2299C124.343 66.6966 124.359 65.9466 124.359 64.9799C124.359 63.2799 124.326 61.4466 124.259 59.4799C124.193 57.5132 124.143 56.1799 124.109 55.4799C123.943 52.2466 123.859 49.3966 123.859 46.9299ZM138.65 45.8799C138.65 44.4466 139.7 43.7299 141.8 43.7299C142.7 43.7299 144.416 43.7632 146.95 43.8299C149.75 43.9632 151.866 44.0299 153.3 44.0299C154.466 44.0299 155.883 43.9632 157.55 43.8299C158.683 43.7632 159.4 43.7299 159.7 43.7299C161.533 43.7966 163.083 44.1299 164.35 44.7299C164.716 44.8966 165.016 45.0966 165.25 45.3299C165.483 45.5632 165.6 45.9466 165.6 46.4799C165.6 47.2132 165.366 47.8466 164.9 48.3799C164.433 48.8799 163.866 49.1299 163.2 49.1299C162.466 49.1299 161.4 49.0299 160 48.8299C158.766 48.5966 157.683 48.4799 156.75 48.4799C155.85 48.4799 155.166 48.4966 154.7 48.5299C154.6 49.6299 154.55 52.2632 154.55 56.4299C154.55 61.3966 154.7 66.4299 155 71.5299L155.1 72.9799C155.1 74.3466 154.316 75.0299 152.75 75.0299C151.516 75.0299 150.683 74.7466 150.25 74.1799C149.816 73.5799 149.6 72.6799 149.6 71.4799C149.6 69.1132 149.533 66.1632 149.4 62.6299C149.266 59.6966 149.2 57.6132 149.2 56.3799C149.2 55.5466 149.3 52.9966 149.5 48.7299L143.65 48.7799C141.783 48.7799 140.483 48.6132 139.75 48.2799C139.016 47.9132 138.65 47.1132 138.65 45.8799ZM197.527 74.2799C197.094 73.7132 196.727 73.0966 196.427 72.4299C196.127 71.7299 195.81 70.8966 195.477 69.9299C195.41 69.7632 195.21 69.2632 194.877 68.4299C194.577 67.5966 194.227 66.8799 193.827 66.2799C191.727 66.5799 190.01 66.7299 188.677 66.7299C187.944 66.7299 187.127 66.7132 186.227 66.6799C185.36 66.6132 184.71 66.5799 184.277 66.5799C182.61 66.4466 181.277 66.3799 180.277 66.3799C179.877 66.9132 179.527 67.4799 179.227 68.0799C178.96 68.6799 178.61 69.5799 178.177 70.7799C177.577 72.5132 177.06 73.7466 176.627 74.4799C176.327 74.9799 175.744 75.2299 174.877 75.2299C174.144 75.2299 173.46 75.0799 172.827 74.7799C172.227 74.4466 171.927 73.9966 171.927 73.4299C172.194 72.1632 172.61 70.8299 173.177 69.4299C173.777 67.9966 174.627 66.0966 175.727 63.7299L177.727 58.8299C178.827 56.0299 179.827 53.6299 180.727 51.6299C181.66 49.6299 182.877 47.2632 184.377 44.5299C184.577 44.1299 184.91 43.7966 185.377 43.5299C185.844 43.2299 186.36 43.0799 186.927 43.0799C187.56 43.0799 188.01 43.1299 188.277 43.2299C188.577 43.2966 188.81 43.4299 188.977 43.6299C189.144 43.7966 189.394 44.1632 189.727 44.7299C190.86 46.4966 191.827 48.3132 192.627 50.1799C193.46 52.0466 194.51 54.6299 195.777 57.9299L196.827 60.5799C197.76 62.9799 198.56 64.9966 199.227 66.6299C199.927 68.2299 200.694 69.6966 201.527 71.0299C202.06 71.8966 202.327 72.4966 202.327 72.8299C202.327 73.6299 202.077 74.2466 201.577 74.6799C201.11 75.0799 200.494 75.2799 199.727 75.2799C198.76 75.2799 198.027 74.9466 197.527 74.2799ZM192.377 62.1799C191.844 61.0466 191.077 59.0799 190.077 56.2799C189.044 53.2799 188.01 50.8966 186.977 49.1299C186.344 50.7299 185.41 52.7966 184.177 55.3299C183.344 56.8966 182.394 59.1632 181.327 62.1299C183.46 62.3966 185.76 62.5299 188.227 62.5299C189.994 62.5299 191.377 62.4132 192.377 62.1799ZM236.109 47.2799C236.609 47.8799 236.959 48.3632 237.159 48.7299C237.359 49.0966 237.459 49.4466 237.459 49.7799C237.459 50.1799 237.193 50.6466 236.659 51.1799C236.159 51.7132 235.659 51.9799 235.159 51.9799C234.493 51.9799 233.959 51.8799 233.559 51.6799C233.159 51.4799 232.826 51.1632 232.559 50.7299C232.026 49.9299 231.376 49.2466 230.609 48.6799C229.843 48.0799 228.643 47.7799 227.009 47.7799C225.609 47.7799 224.009 48.0966 222.209 48.7299C220.443 49.3632 219.176 50.1466 218.409 51.0799C217.743 51.9132 217.159 53.1799 216.659 54.8799C216.193 56.5799 215.959 58.2299 215.959 59.8299C215.959 61.7632 216.376 63.5466 217.209 65.1799C218.076 66.7799 219.309 68.0632 220.909 69.0299C222.543 69.9966 224.493 70.4799 226.759 70.4799C227.993 70.4799 229.259 70.2466 230.559 69.7799C231.893 69.2799 233.043 68.4799 234.009 67.3799H233.959C234.559 66.7466 235.309 66.4299 236.209 66.4299C236.743 66.4299 237.243 66.6632 237.709 67.1299C238.209 67.5966 238.459 68.0632 238.459 68.5299C238.459 69.0299 238.376 69.4799 238.209 69.8799C238.076 70.2466 237.809 70.6632 237.409 71.1299C236.043 72.6632 234.426 73.7132 232.559 74.2799C230.693 74.8466 228.459 75.1299 225.859 75.1299C223.559 75.1299 221.226 74.5799 218.859 73.4799C216.526 72.3799 214.726 71.0466 213.459 69.4799C212.793 68.5132 212.143 67.1299 211.509 65.3299C210.909 63.4966 210.609 62.0132 210.609 60.8799C210.609 57.9799 211.043 55.2299 211.909 52.6299C212.809 49.9966 214.143 47.8966 215.909 46.3299C217.076 45.2632 218.759 44.4632 220.959 43.9299C223.159 43.3966 225.176 43.1299 227.009 43.1299C229.243 43.1299 230.993 43.4466 232.259 44.0799C233.559 44.6799 234.843 45.7466 236.109 47.2799ZM245.788 45.8799C245.788 44.4466 246.838 43.7299 248.938 43.7299C249.838 43.7299 251.555 43.7632 254.088 43.8299C256.888 43.9632 259.005 44.0299 260.438 44.0299C261.605 44.0299 263.022 43.9632 264.688 43.8299C265.822 43.7632 266.538 43.7299 266.838 43.7299C268.672 43.7966 270.222 44.1299 271.488 44.7299C271.855 44.8966 272.155 45.0966 272.388 45.3299C272.622 45.5632 272.738 45.9466 272.738 46.4799C272.738 47.2132 272.505 47.8466 272.038 48.3799C271.572 48.8799 271.005 49.1299 270.338 49.1299C269.605 49.1299 268.538 49.0299 267.138 48.8299C265.905 48.5966 264.822 48.4799 263.888 48.4799C262.988 48.4799 262.305 48.4966 261.838 48.5299C261.738 49.6299 261.688 52.2632 261.688 56.4299C261.688 61.3966 261.838 66.4299 262.138 71.5299L262.238 72.9799C262.238 74.3466 261.455 75.0299 259.888 75.0299C258.655 75.0299 257.822 74.7466 257.388 74.1799C256.955 73.5799 256.738 72.6799 256.738 71.4799C256.738 69.1132 256.672 66.1632 256.538 62.6299C256.405 59.6966 256.338 57.6132 256.338 56.3799C256.338 55.5466 256.438 52.9966 256.638 48.7299L250.788 48.7799C248.922 48.7799 247.622 48.6132 246.888 48.2799C246.155 47.9132 245.788 47.1132 245.788 45.8799ZM326.796 43.4299C327.263 43.4299 327.829 43.7466 328.496 44.3799C329.196 44.9799 329.546 45.4966 329.546 45.9299C329.546 47.9632 329.479 50.7466 329.346 54.2799C329.313 55.1466 329.279 56.1966 329.246 57.4299C329.213 58.6299 329.196 60.0299 329.196 61.6299C329.196 64.2966 329.229 66.5466 329.296 68.3799C329.396 70.1799 329.596 71.6632 329.896 72.8299C329.863 73.6299 329.546 74.2132 328.946 74.5799C328.346 74.9132 327.729 75.0799 327.096 75.0799C325.796 75.0799 324.963 74.6299 324.596 73.7299C324.263 72.8299 324.096 71.4799 324.096 69.6799C324.096 62.3466 324.179 56.4299 324.346 51.9299C323.579 52.7632 322.846 53.7132 322.146 54.7799C321.446 55.8466 320.579 57.2466 319.546 58.9799C318.213 61.2132 317.129 62.9132 316.296 64.0799C315.863 64.6132 315.479 64.9799 315.146 65.1799C314.813 65.3799 314.313 65.4799 313.646 65.4799C312.813 65.4799 312.163 65.2799 311.696 64.8799C311.263 64.4799 310.746 63.8299 310.146 62.9299C309.279 61.6299 307.913 59.3799 306.046 56.1799L303.396 51.8299C303.396 57.2966 303.496 61.7799 303.696 65.2799C303.863 67.4466 303.946 69.7299 303.946 72.1299C303.946 72.9299 303.729 73.6132 303.296 74.1799C302.896 74.7132 302.279 74.9799 301.446 74.9799C300.546 74.9799 299.829 74.8132 299.296 74.4799C298.796 74.1466 298.529 73.6466 298.496 72.9799C298.529 72.4132 298.546 71.4799 298.546 70.1799C298.546 65.8132 298.479 61.7466 298.346 57.9799L298.246 54.4799C298.213 53.4466 298.179 52.2466 298.146 50.8799C298.113 49.4799 298.096 47.9632 298.096 46.3299C298.096 44.3299 299.179 43.3299 301.346 43.3299C302.013 43.3299 302.679 43.4966 303.346 43.8299C304.046 44.1632 304.563 44.6466 304.896 45.2799C305.463 46.4799 306.796 48.7799 308.896 52.1799C310.996 55.5466 312.563 57.9966 313.596 59.5299C314.296 58.6299 314.929 57.6966 315.496 56.7299C316.096 55.7632 316.596 54.9299 316.996 54.2299C318.229 52.2299 319.563 50.3466 320.996 48.5799C322.096 47.2466 322.996 46.0132 323.696 44.8799C324.029 44.4799 324.463 44.1466 324.996 43.8799C325.563 43.5799 326.163 43.4299 326.796 43.4299ZM362.76 68.6799C363.393 68.6799 363.86 68.9299 364.16 69.4299C364.493 69.8966 364.66 70.4132 364.66 70.9799C364.66 71.6799 364.543 72.1799 364.31 72.4799C364.11 72.7466 363.693 73.0299 363.06 73.3299C361.726 73.9632 360.226 74.4132 358.56 74.6799C356.926 74.9466 354.876 75.0799 352.41 75.0799C349.443 75.0799 347.16 74.5799 345.56 73.5799C343.993 72.5466 342.96 71.2632 342.46 69.7299C341.96 68.1966 341.71 66.4132 341.71 64.3799V61.2299C341.71 59.0632 341.76 56.9799 341.86 54.9799C341.993 52.9799 342.243 50.6466 342.61 47.9799C342.843 46.3799 343.476 45.2299 344.51 44.5299C345.543 43.7966 346.676 43.4299 347.91 43.4299C349.243 43.4299 351.076 43.3966 353.41 43.3299L357.76 43.2799C359.526 43.2799 360.826 43.3299 361.66 43.4299C362.66 43.6299 363.393 43.8632 363.86 44.1299C364.36 44.3632 364.61 44.7799 364.61 45.3799C364.61 46.0466 364.376 46.6966 363.91 47.3299C363.476 47.9632 362.81 48.2799 361.91 48.2799C360.876 48.2799 359.393 48.2132 357.46 48.0799C355.526 47.9466 354.076 47.8799 353.11 47.8799C351.91 47.8799 350.943 47.9299 350.21 48.0299C349.276 48.0966 348.61 48.2132 348.21 48.3799C347.81 48.5466 347.576 48.8299 347.51 49.2299C347.043 52.6632 346.81 55.1966 346.81 56.8299C347.543 56.9299 348.326 56.9799 349.16 56.9799C350.226 56.9799 352.01 56.8632 354.51 56.6299C356.343 56.4632 357.86 56.3799 359.06 56.3799C359.826 56.3799 360.393 56.5132 360.76 56.7799C361.126 57.0466 361.31 57.4132 361.31 57.8799C361.31 58.6132 361.126 59.1799 360.76 59.5799C360.393 59.9799 359.726 60.2799 358.76 60.4799C357.593 60.7132 356.076 60.8966 354.21 61.0299C352.376 61.1632 350.626 61.2299 348.96 61.2299C348.326 61.2299 347.543 61.1966 346.61 61.1299C346.61 63.3299 346.71 65.0632 346.91 66.3299C347.143 67.5966 347.61 68.5799 348.31 69.2799C349.043 69.9799 350.143 70.3299 351.61 70.3299C354.91 70.3299 357.543 70.0299 359.51 69.4299C360.91 68.9299 361.993 68.6799 362.76 68.6799Z" fill="white"/>
<path d="M204.614 377.543L66.9809 386.976C60.6717 387.409 55.4177 383.007 54.9793 377.467L34.9454 124.302C34.5071 118.763 39.0101 113.692 45.3206 113.259L182.954 103.826C189.263 103.393 194.517 107.795 194.956 113.335L214.99 366.5C214.99 366.5 214.99 366.5 214.99 366.5C215.426 372.039 210.923 377.11 204.614 377.543Z" fill="#F9D000" stroke="black" stroke-width="4"/>
<path d="M193.296 359.045L75.9409 367.089C71.8459 367.369 68.5305 364.523 68.2553 361.045L50.6702 138.826C50.395 135.348 53.2266 132.08 57.3216 131.8L174.676 123.756C178.771 123.475 182.087 126.321 182.362 129.799L199.947 352.019C200.222 355.497 197.391 358.764 193.296 359.045Z" fill="white" stroke="black" stroke-width="4"/>
<path d="M132.313 142.507L99.7199 144.907C99.4991 144.923 99.2722 144.263 99.2116 143.441C99.151 142.618 99.2806 141.932 99.4996 141.916L132.092 139.516C132.313 139.499 132.54 140.159 132.601 140.982C132.661 141.805 132.532 142.491 132.313 142.507Z" fill="black"/>
<path d="M145.054 283.128C146.275 284.385 146.572 285.69 146.383 287.061C146.176 288.564 145.363 290.221 144.189 291.867C143.033 293.489 141.633 294.953 140.455 296.059C139.87 296.608 139.35 297.06 138.956 297.388C138.759 297.552 138.595 297.684 138.472 297.781C138.411 297.829 138.361 297.868 138.323 297.897C138.304 297.911 138.289 297.923 138.277 297.931L138.264 297.941L138.26 297.944L145.054 283.128ZM145.054 283.128L124.715 264.281C122.738 262.555 117.739 261.236 111.154 264.61L111.154 264.61L111.152 264.611C107.784 266.336 102.853 268.861 96.1189 267.339C89.4791 265.837 81.5176 260.512 71.5732 247.89C61.6353 235.279 58.1238 226.105 58.0965 219.209C58.0685 212.16 61.6736 207.918 64.7429 205.252L64.743 205.252C64.7406 205.254 64.7406 205.254 64.743 205.252C64.7505 205.245 64.7807 205.216 64.836 205.159C64.9031 205.089 64.9918 204.993 65.0984 204.87C65.3116 204.625 65.5832 204.292 65.8829 203.882C66.485 203.058 67.1769 201.96 67.7398 200.693C68.8693 198.15 69.3845 195.169 67.992 192.286L57.4691 173.53C55.4254 170.19 53.2932 168.505 51.3549 167.717C49.4083 166.925 47.4453 166.952 45.5979 167.407C41.8926 168.319 38.9745 170.871 38.5049 171.281C38.4936 171.291 38.4837 171.3 38.4753 171.307L38.4729 171.309C29.0116 179.519 25.4432 193.132 27.9127 209.494C30.379 225.834 38.8499 244.614 53.0112 262.58L53.0113 262.58C67.1734 280.55 83.4441 293.166 98.7377 299.365C114.05 305.571 128.092 305.256 138.259 297.945L145.054 283.128Z" fill="#474CFF" stroke="black" stroke-width="4"/>
<g clip-path="url(#clip0_18_6)">
<path d="M144.217 233.333C144.227 233.221 144.228 233.105 144.219 232.989L144.218 232.976L144.218 232.976C143.326 219.908 138.591 207.472 130.516 197.007C122.49 186.609 111.682 178.898 99.2587 174.716C99.1121 174.668 98.9747 174.636 98.8406 174.619C98.3721 174.56 97.8859 174.655 97.4657 174.898C96.9054 175.225 96.5124 175.777 96.3898 176.406L96.3889 176.41C96.2705 177.009 96.4108 177.653 96.7814 178.161L96.7832 178.164C97.0558 178.54 97.4242 178.81 97.8688 178.961C109.44 182.866 119.514 190.055 126.986 199.741M144.217 233.333L125.799 200.658M144.217 233.333C144.212 233.361 144.208 233.389 144.204 233.418C144.142 233.906 143.922 234.365 143.569 234.722L143.567 234.723C143.129 235.168 142.521 235.407 141.891 235.379C141.869 235.377 141.846 235.375 141.824 235.374C140.719 235.31 139.81 234.416 139.731 233.285M144.217 233.333L139.731 233.285M126.986 199.741L125.799 200.658M126.986 199.741C126.986 199.741 126.986 199.741 126.986 199.74L125.799 200.658M126.986 199.741C127.324 200.178 127.658 200.626 127.982 201.07M125.799 200.658C126.127 201.082 126.453 201.519 126.771 201.955M127.982 201.07L126.771 201.955M127.982 201.07C134.865 210.497 138.927 221.634 139.731 233.285M127.982 201.07C127.983 201.07 127.983 201.07 127.983 201.07L126.771 201.955M126.771 201.955L139.731 233.285M139.731 233.285L138.239 233.389L139.731 233.286C139.731 233.285 139.731 233.285 139.731 233.285ZM145.696 233.608L145.692 233.607L145.714 232.874C145.729 233.062 145.729 233.251 145.714 233.437C145.709 233.494 145.704 233.551 145.696 233.608Z" fill="#474CFF" stroke="black" stroke-width="3" stroke-linejoin="round"/>
<path d="M127.684 231.879C127.754 232.506 127.556 233.13 127.138 233.605C127.12 233.622 127.103 233.639 127.086 233.657C126.629 234.14 125.99 234.392 125.332 234.354C124.252 234.288 123.365 233.453 123.241 232.354L123.241 232.35C122.344 224.536 119.419 217.042 114.774 210.68C114.537 210.353 114.289 210.027 114.057 209.722L114.048 209.711L114.048 209.711L114.042 209.703C108.955 203.109 102.198 198.055 94.5042 195.078C94.1082 194.923 93.7772 194.669 93.5372 194.338L93.5364 194.337C93.1749 193.841 93.0315 193.195 93.1539 192.573L93.1539 192.573C93.2829 191.918 93.6879 191.364 94.2652 191.047L94.2652 191.047L94.2722 191.044C94.6844 190.815 95.1574 190.727 95.6177 190.785C95.7828 190.806 95.9554 190.849 96.1378 190.918C104.575 194.18 111.984 199.731 117.568 206.968L118.432 206.301L117.568 206.968C123.173 214.232 126.671 222.851 127.684 231.879Z" fill="#474CFF" stroke="black" stroke-width="3" stroke-linejoin="round"/>
<path d="M91.0248 211.36L91.0248 211.36L91.0197 211.357C90.719 211.209 90.4562 210.987 90.2639 210.719L90.264 210.719L90.2576 210.71C89.8891 210.205 89.7456 209.561 89.8675 208.941L89.8676 208.941C90.0032 208.251 90.44 207.683 91.076 207.37L91.076 207.37L91.0806 207.367C91.4797 207.169 91.9141 207.1 92.3395 207.155C92.5828 207.186 92.8291 207.259 93.068 207.377C97.5949 209.644 101.483 212.85 104.617 216.915L104.618 216.916C106.194 218.956 107.516 221.13 108.569 223.414L108.57 223.416C109.627 225.701 110.418 228.103 110.939 230.606C111.084 231.306 110.903 232.001 110.441 232.533C110.425 232.552 110.41 232.57 110.395 232.589C109.94 233.089 109.303 233.35 108.619 233.309C107.615 233.25 106.776 232.524 106.574 231.554C105.672 227.206 103.827 223.196 101.087 219.65C98.3672 216.12 94.976 213.327 91.0248 211.36Z" fill="#474CFF" stroke="black" stroke-width="3" stroke-linejoin="round"/>
</g>
<path d="M313.898 270.381L305.261 358.576L162.264 346.655L170.903 258.426L245.969 209.621L313.898 270.381Z" fill="#F04192" stroke="black" stroke-width="4"/>
<path d="M237.207 318.505C237.12 318.498 237.033 318.464 236.966 318.404L173.575 263.152C173.414 263.011 173.406 262.778 173.56 262.629C173.714 262.482 173.968 262.476 174.131 262.616L237.288 317.666L309.134 273.42C309.319 273.306 309.568 273.352 309.693 273.52C309.817 273.69 309.767 273.918 309.584 274.033L237.469 318.443C237.39 318.492 237.297 318.511 237.208 318.504L237.207 318.505Z" stroke="black" stroke-width="4"/>
<path d="M286.369 287.73L237.316 318.148L193.588 279.994L198.955 225.177L291.736 232.913L286.369 287.73Z" fill="white" stroke="black" stroke-width="4"/>
<path d="M220.694 254.996C223.623 255.76 225.367 258.737 224.612 261.632C223.857 264.527 220.881 266.273 217.952 265.51C215.023 264.746 213.279 261.769 214.034 258.874C214.789 255.979 217.765 254.233 220.694 254.996Z" fill="#F9D000" stroke="black" stroke-width="4"/>
<path d="M242.385 256.969C245.315 257.732 247.059 260.709 246.304 263.604C245.549 266.5 242.573 268.246 239.644 267.483C236.715 266.719 234.971 263.742 235.726 260.847C236.481 257.952 239.456 256.205 242.385 256.969Z" fill="#F9D000" stroke="black" stroke-width="4"/>
<path d="M264.082 258.946C267.011 259.709 268.755 262.686 268 265.581C267.245 268.476 264.269 270.223 261.34 269.459C258.411 268.696 256.667 265.719 257.422 262.824C258.177 259.929 261.152 258.182 264.082 258.946Z" fill="#F9D000" stroke="black" stroke-width="4"/>
<defs>
<clipPath id="clip0_18_6">
<rect width="59.9995" height="59.9892" fill="white" transform="matrix(0.99199 0.126362 -0.126407 0.991973 93.0114 172.365)"/>
</clipPath>
</defs>
</svg>
